<svg version="1.0" preserveAspectRatio="xMidYMid meet" viewBox="41.25 136.499996724 304.5 101.24999757000002" zoomAndPan="magnify" xmlns:xlink="http://www.w3.org/1999/xlink" xmlns="http://www.w3.org/2000/svg" style="max-height: 500px" width="304.5" height="101.24999757000002"><defs><g/><clipPath id="798ab0e217"><path clip-rule="nonzero" d="M 145.554688 208.375 L 241.414062 208.375 L 241.414062 226.375 L 145.554688 226.375 Z M 145.554688 208.375"/></clipPath></defs><rect fill-opacity="1" height="449.999989" y="-37.499999" fill="#ffffff" width="450" x="-37.5"/><rect fill-opacity="1" height="449.999989" y="-37.499999" fill="#ffffff" width="450" x="-37.5"/><g fill-opacity="1" fill="#ff0000"><g transform="translate(42.829846, 190.486303)"><g><path d="M 46.96875 -36.203125 C 47.894531 -34.117188 48.082031 -31.890625 47.53125 -29.515625 C 46.976562 -27.140625 45.773438 -25.203125 43.921875 -23.703125 C 42.992188 -23.003906 42.15625 -22.597656 41.40625 -22.484375 C 40.65625 -22.367188 39.960938 -22.859375 39.328125 -23.953125 C 39.210938 -24.304688 39.367188 -24.613281 39.796875 -24.875 C 40.234375 -25.132812 40.742188 -25.550781 41.328125 -26.125 C 42.128906 -26.9375 42.75 -27.660156 43.1875 -28.296875 C 43.625 -28.929688 43.925781 -29.890625 44.09375 -31.171875 C 44.21875 -31.859375 44.25 -32.535156 44.1875 -33.203125 C 44.125 -33.867188 43.921875 -34.550781 43.578125 -35.25 C 43.285156 -35.882812 42.804688 -36.390625 42.140625 -36.765625 C 41.484375 -37.140625 40.921875 -37.359375 40.453125 -37.421875 L 38.890625 -37.59375 C 38.660156 -37.414062 38.328125 -37.34375 37.890625 -37.375 C 37.460938 -37.40625 37.25 -37.421875 37.25 -37.421875 C 37.007812 -37.359375 36.457031 -37.238281 35.59375 -37.0625 C 34.726562 -36.894531 33.90625 -36.707031 33.125 -36.5 C 32.34375 -36.300781 31.890625 -36.085938 31.765625 -35.859375 C 31.597656 -35.742188 31.457031 -35.640625 31.34375 -35.546875 C 31.226562 -35.460938 31.082031 -35.363281 30.90625 -35.25 C 30.5625 -35.019531 30.15625 -34.90625 29.6875 -34.90625 C 29.28125 -34.90625 28.992188 -34.613281 28.828125 -34.03125 L 26.734375 -32.46875 C 26.097656 -31.882812 24.96875 -31.085938 23.34375 -30.078125 C 21.726562 -29.066406 20.34375 -27.578125 19.1875 -25.609375 C 18.082031 -23.640625 17.890625 -21.785156 18.609375 -20.046875 C 19.335938 -18.316406 20.425781 -16.875 21.875 -15.71875 C 22.625 -15.195312 23.390625 -14.71875 24.171875 -14.28125 C 24.953125 -13.84375 25.722656 -13.394531 26.484375 -12.9375 C 26.765625 -12.707031 27.0625 -12.519531 27.375 -12.375 C 27.695312 -12.226562 28.003906 -12.066406 28.296875 -11.890625 C 29.921875 -11.078125 31.46875 -10.175781 32.9375 -9.1875 C 34.414062 -8.207031 35.820312 -7.140625 37.15625 -5.984375 C 39.125 -4.253906 40.65625 -2.085938 41.75 0.515625 C 42.15625 1.617188 42.269531 2.632812 42.09375 3.5625 C 41.925781 4.488281 41.550781 5.351562 40.96875 6.15625 C 40.101562 7.375 38.859375 8.488281 37.234375 9.5 C 35.617188 10.519531 33.84375 11.375 31.90625 12.0625 C 29.96875 12.757812 28.070312 13.253906 26.21875 13.546875 C 24.363281 13.835938 22.492188 13.96875 20.609375 13.9375 C 18.734375 13.90625 16.867188 13.742188 15.015625 13.453125 C 11.835938 12.878906 9.289062 11.5625 7.375 9.5 C 5.46875 7.445312 4.457031 4.914062 4.34375 1.90625 C 4.34375 1.382812 4.613281 0.707031 5.15625 -0.125 C 5.707031 -0.96875 6.359375 -1.820312 7.109375 -2.6875 C 7.867188 -3.5625 8.550781 -4.300781 9.15625 -4.90625 C 9.757812 -5.507812 10.125 -5.84375 10.25 -5.90625 C 10.9375 -6.25 11.628906 -6.273438 12.328125 -5.984375 C 13.023438 -5.703125 13.515625 -5.3125 13.796875 -4.8125 C 14.085938 -4.320312 13.972656 -3.988281 13.453125 -3.8125 C 12.003906 -3.414062 10.785156 -2.738281 9.796875 -1.78125 C 8.816406 -0.820312 8.269531 0.492188 8.15625 2.171875 C 8.101562 3.441406 8.320312 4.898438 8.8125 6.546875 C 9.300781 8.203125 10.15625 9.40625 11.375 10.15625 C 13.050781 11.144531 14.757812 11.695312 16.5 11.8125 C 17.476562 11.863281 18.472656 11.859375 19.484375 11.796875 C 20.503906 11.742188 21.503906 11.628906 22.484375 11.453125 C 24.859375 11.109375 27.113281 10.441406 29.25 9.453125 C 31.394531 8.472656 33.21875 7.492188 34.71875 6.515625 C 35.9375 5.753906 36.976562 4.679688 37.84375 3.296875 C 38.3125 2.546875 38.617188 1.765625 38.765625 0.953125 C 38.910156 0.140625 38.75 -0.726562 38.28125 -1.65625 C 37.9375 -2.457031 37.472656 -3.191406 36.890625 -3.859375 C 36.316406 -4.523438 35.710938 -5.148438 35.078125 -5.734375 C 33.972656 -6.773438 32.753906 -7.710938 31.421875 -8.546875 C 30.085938 -9.390625 28.726562 -10.128906 27.34375 -10.765625 C 26.414062 -11.222656 25.503906 -11.742188 24.609375 -12.328125 C 23.710938 -12.910156 22.832031 -13.488281 21.96875 -14.0625 C 21.207031 -14.53125 20.175781 -15.3125 18.875 -16.40625 C 17.570312 -17.507812 16.601562 -18.785156 15.96875 -20.234375 C 14.582031 -23.359375 14.785156 -26.25 16.578125 -28.90625 C 17.046875 -29.65625 17.566406 -30.332031 18.140625 -30.9375 C 18.722656 -31.550781 19.359375 -32.117188 20.046875 -32.640625 C 20.972656 -33.335938 21.867188 -33.988281 22.734375 -34.59375 C 23.609375 -35.195312 24.535156 -35.734375 25.515625 -36.203125 C 28.066406 -37.359375 30.140625 -38.222656 31.734375 -38.796875 C 33.328125 -39.378906 35.019531 -39.757812 36.8125 -39.9375 C 38.144531 -40.050781 39.632812 -40.019531 41.28125 -39.84375 C 42.925781 -39.675781 44.269531 -39.1875 45.3125 -38.375 C 46.007812 -37.851562 46.5625 -37.128906 46.96875 -36.203125 Z M 46.96875 -36.203125"/></g></g></g><g fill-opacity="1" fill="#ff0000"><g transform="translate(91.612445, 190.486303)"><g><path d="M 32.90625 -11.546875 C 32.5 -10.910156 31.976562 -10.316406 31.34375 -9.765625 C 30.707031 -9.210938 30.097656 -8.734375 29.515625 -8.328125 C 29.285156 -8.160156 29.039062 -8.015625 28.78125 -7.890625 C 28.519531 -7.773438 28.332031 -7.660156 28.21875 -7.546875 C 28.101562 -7.429688 27.957031 -7.285156 27.78125 -7.109375 C 27.601562 -6.941406 27.398438 -6.800781 27.171875 -6.6875 C 27.109375 -6.625 26.960938 -6.476562 26.734375 -6.25 C 26.503906 -6.019531 26.332031 -5.875 26.21875 -5.8125 L 24.921875 -4.6875 L 22.828125 -3.125 C 22.484375 -2.71875 22.125 -2.425781 21.75 -2.25 C 21.375 -2.082031 20.953125 -1.851562 20.484375 -1.5625 C 20.253906 -1.445312 20.050781 -1.375 19.875 -1.34375 C 19.707031 -1.3125 19.503906 -1.238281 19.265625 -1.125 C 19.210938 -1.070312 19.082031 -1.015625 18.875 -0.953125 C 18.675781 -0.898438 18.519531 -0.875 18.40625 -0.875 C 18.34375 -0.875 18.222656 -0.84375 18.046875 -0.78125 C 17.878906 -0.71875 17.738281 -0.6875 17.625 -0.6875 C 17.445312 -0.6875 17.195312 -0.65625 16.875 -0.59375 C 16.5625 -0.539062 16.316406 -0.546875 16.140625 -0.609375 C 16.085938 -0.660156 15.957031 -0.703125 15.75 -0.734375 C 15.550781 -0.765625 15.394531 -0.8125 15.28125 -0.875 C 15.164062 -0.925781 15.050781 -1.007812 14.9375 -1.125 C 14.820312 -1.238281 14.703125 -1.328125 14.578125 -1.390625 C 14.347656 -1.734375 14.085938 -2.019531 13.796875 -2.25 C 13.515625 -2.488281 13.285156 -2.8125 13.109375 -3.21875 C 12.878906 -3.5 12.734375 -3.695312 12.671875 -3.8125 C 12.617188 -3.9375 12.535156 -4.113281 12.421875 -4.34375 C 12.359375 -4.394531 12.3125 -4.460938 12.28125 -4.546875 C 12.25 -4.640625 12.207031 -4.71875 12.15625 -4.78125 C 11.863281 -4.601562 11.660156 -4.351562 11.546875 -4.03125 C 11.429688 -3.71875 11.226562 -3.5625 10.9375 -3.5625 C 10.875 -3.5 10.8125 -3.410156 10.75 -3.296875 C 10.695312 -3.179688 10.613281 -3.09375 10.5 -3.03125 C 9.976562 -2.632812 9.382812 -2.1875 8.71875 -1.6875 C 8.050781 -1.195312 7.375 -0.804688 6.6875 -0.515625 C 5.289062 0.171875 3.898438 0.226562 2.515625 -0.34375 C 2.222656 -0.34375 1.992188 -0.375 1.828125 -0.4375 C 1.585938 -0.664062 1.125 -0.953125 0.4375 -1.296875 C -0.375 -2.335938 -0.609375 -3.5 -0.265625 -4.78125 C 0.0234375 -5.414062 0.226562 -5.9375 0.34375 -6.34375 C 0.40625 -6.394531 0.4375 -6.453125 0.4375 -6.515625 C 0.488281 -6.796875 0.570312 -7.050781 0.6875 -7.28125 C 0.8125 -7.519531 0.898438 -7.785156 0.953125 -8.078125 L 1.5625 -9.109375 C 1.738281 -9.347656 1.882812 -9.566406 2 -9.765625 C 2.113281 -9.960938 2.195312 -10.09375 2.25 -10.15625 C 2.71875 -10.90625 3.222656 -11.566406 3.765625 -12.140625 C 4.316406 -12.722656 4.851562 -13.335938 5.375 -13.984375 C 5.894531 -14.554688 6.515625 -15.070312 7.234375 -15.53125 C 7.960938 -16 8.734375 -16.265625 9.546875 -16.328125 C 10.472656 -16.148438 11.367188 -15.898438 12.234375 -15.578125 C 13.109375 -15.265625 13.628906 -14.613281 13.796875 -13.625 C 13.921875 -13.050781 13.863281 -12.546875 13.625 -12.109375 C 13.394531 -11.671875 13.164062 -11.222656 12.9375 -10.765625 C 13.28125 -10.816406 13.625 -10.957031 13.96875 -11.1875 C 14.320312 -11.425781 14.757812 -11.515625 15.28125 -11.453125 C 15.800781 -11.285156 16.148438 -10.882812 16.328125 -10.25 C 16.328125 -10.25 16.328125 -10.054688 16.328125 -9.671875 C 16.328125 -9.296875 16.265625 -8.9375 16.140625 -8.59375 C 16.085938 -8.53125 16.0625 -8.46875 16.0625 -8.40625 C 16.0625 -8.351562 16.03125 -8.269531 15.96875 -8.15625 C 15.851562 -7.582031 15.8125 -6.972656 15.84375 -6.328125 C 15.875 -5.691406 16.003906 -5.054688 16.234375 -4.421875 C 16.347656 -4.015625 16.609375 -3.695312 17.015625 -3.46875 C 17.191406 -3.414062 17.394531 -3.414062 17.625 -3.46875 C 17.738281 -3.53125 17.878906 -3.570312 18.046875 -3.59375 C 18.222656 -3.625 18.398438 -3.671875 18.578125 -3.734375 C 19.273438 -4.023438 19.96875 -4.414062 20.65625 -4.90625 C 21.351562 -5.394531 21.992188 -5.84375 22.578125 -6.25 C 23.148438 -6.59375 23.753906 -6.96875 24.390625 -7.375 C 25.023438 -7.78125 25.632812 -8.1875 26.21875 -8.59375 C 26.914062 -9.050781 27.421875 -9.367188 27.734375 -9.546875 C 28.054688 -9.722656 28.375 -9.910156 28.6875 -10.109375 C 29.007812 -10.316406 29.488281 -10.625 30.125 -11.03125 C 30.414062 -11.3125 30.75 -11.566406 31.125 -11.796875 C 31.5 -12.035156 31.890625 -12.269531 32.296875 -12.5 L 32.546875 -12.328125 Z M 11.71875 -9.109375 C 11.78125 -9.109375 11.867188 -9.179688 11.984375 -9.328125 C 12.097656 -9.472656 12.15625 -9.546875 12.15625 -9.546875 L 12.0625 -9.546875 C 11.425781 -9.609375 11.035156 -9.972656 10.890625 -10.640625 C 10.742188 -11.304688 10.710938 -11.96875 10.796875 -12.625 C 10.890625 -13.289062 10.9375 -13.625 10.9375 -13.625 C 10.070312 -13.507812 9.1875 -13.046875 8.28125 -12.234375 C 7.382812 -11.429688 6.585938 -10.578125 5.890625 -9.671875 C 5.203125 -8.773438 4.6875 -8.039062 4.34375 -7.46875 C 3.9375 -6.769531 3.554688 -6.046875 3.203125 -5.296875 C 2.859375 -4.546875 2.570312 -3.734375 2.34375 -2.859375 C 2.800781 -2.859375 3.378906 -2.882812 4.078125 -2.9375 C 4.773438 -3 5.328125 -3.117188 5.734375 -3.296875 C 6.710938 -3.703125 7.632812 -4.367188 8.5 -5.296875 C 9.144531 -5.992188 9.679688 -6.628906 10.109375 -7.203125 C 10.546875 -7.785156 11.082031 -8.421875 11.71875 -9.109375 Z M 11.71875 -9.109375"/></g></g></g><g fill-opacity="1" fill="#ff0000"><g transform="translate(119.736218, 190.486303)"><g><path d="M 3.5625 7.03125 L 2.171875 6.421875 C 2.171875 6.367188 2.082031 6.179688 1.90625 5.859375 C 1.738281 5.535156 1.625 5.375 1.5625 5.375 C 1.269531 5.375 1.09375 5.210938 1.03125 4.890625 C 0.976562 4.578125 0.863281 4.28125 0.6875 4 C 0.632812 3.707031 0.59375 3.457031 0.5625 3.25 C 0.53125 3.050781 0.515625 2.921875 0.515625 2.859375 C 0.515625 2.171875 0.539062 1.492188 0.59375 0.828125 C 0.65625 0.160156 0.660156 -0.488281 0.609375 -1.125 C 0.722656 -1.59375 0.835938 -1.96875 0.953125 -2.25 C 1.066406 -2.539062 1.15625 -2.863281 1.21875 -3.21875 C 1.21875 -3.675781 1.300781 -4.117188 1.46875 -4.546875 C 1.644531 -4.984375 1.789062 -5.378906 1.90625 -5.734375 C 1.90625 -6.191406 1.960938 -6.648438 2.078125 -7.109375 C 2.191406 -7.578125 2.3125 -8.015625 2.4375 -8.421875 C 2.488281 -8.765625 2.539062 -9.09375 2.59375 -9.40625 C 2.65625 -9.726562 2.742188 -10.09375 2.859375 -10.5 L 3.640625 -13.71875 C 3.878906 -13.769531 4.171875 -13.695312 4.515625 -13.5 C 4.859375 -13.300781 5.175781 -13.140625 5.46875 -13.015625 C 5.53125 -12.960938 5.5625 -12.878906 5.5625 -12.765625 C 5.5625 -12.648438 5.585938 -12.535156 5.640625 -12.421875 C 5.640625 -12.296875 5.753906 -12.117188 5.984375 -11.890625 C 6.097656 -11.023438 6.054688 -10.15625 5.859375 -9.28125 C 5.660156 -8.414062 5.5 -7.550781 5.375 -6.6875 C 5.144531 -5.757812 4.925781 -4.875 4.71875 -4.03125 C 4.519531 -3.195312 4.28125 -2.316406 4 -1.390625 C 3.9375 -0.804688 3.859375 -0.226562 3.765625 0.34375 C 3.679688 0.925781 3.582031 1.535156 3.46875 2.171875 C 3.9375 2.171875 4.34375 2.007812 4.6875 1.6875 C 5.03125 1.375 5.378906 1.101562 5.734375 0.875 C 6.484375 0.289062 7.144531 -0.429688 7.71875 -1.296875 C 8.007812 -1.535156 8.269531 -1.828125 8.5 -2.171875 C 8.738281 -2.515625 8.972656 -2.832031 9.203125 -3.125 C 10.359375 -4.34375 11.226562 -5.644531 11.8125 -7.03125 C 12.15625 -7.664062 12.515625 -8.300781 12.890625 -8.9375 C 13.265625 -9.570312 13.65625 -10.207031 14.0625 -10.84375 C 14.175781 -11.195312 14.332031 -11.585938 14.53125 -12.015625 C 14.738281 -12.453125 14.957031 -12.90625 15.1875 -13.375 C 15.300781 -13.539062 15.414062 -13.710938 15.53125 -13.890625 C 15.65625 -14.066406 15.773438 -14.15625 15.890625 -14.15625 C 16.003906 -14.15625 16.085938 -14.082031 16.140625 -13.9375 C 16.203125 -13.789062 16.289062 -13.660156 16.40625 -13.546875 C 16.46875 -13.484375 16.507812 -13.410156 16.53125 -13.328125 C 16.5625 -13.242188 16.609375 -13.171875 16.671875 -13.109375 C 17.128906 -12.472656 17.210938 -11.660156 16.921875 -10.671875 L 15.796875 -7.71875 C 15.273438 -6.445312 14.941406 -5.625 14.796875 -5.25 C 14.648438 -4.875 14.519531 -4.570312 14.40625 -4.34375 C 14.289062 -4.050781 14.160156 -3.742188 14.015625 -3.421875 C 13.867188 -3.109375 13.625 -2.863281 13.28125 -2.6875 C 13.226562 -2.6875 13.171875 -2.671875 13.109375 -2.640625 C 13.046875 -2.617188 13.015625 -2.609375 13.015625 -2.609375 C 12.960938 -2.023438 12.804688 -1.546875 12.546875 -1.171875 C 12.285156 -0.796875 12.007812 -0.375 11.71875 0.09375 C 11.488281 0.375 11.242188 0.644531 10.984375 0.90625 C 10.722656 1.164062 10.476562 1.441406 10.25 1.734375 C 9.957031 2.078125 9.648438 2.4375 9.328125 2.8125 C 9.015625 3.195312 8.625 3.53125 8.15625 3.8125 C 7.925781 4.21875 7.664062 4.566406 7.375 4.859375 C 7.082031 5.148438 6.796875 5.441406 6.515625 5.734375 C 5.992188 6.015625 5.484375 6.226562 4.984375 6.375 C 4.492188 6.519531 4.019531 6.738281 3.5625 7.03125 Z M 3.5625 7.03125"/></g></g></g><g fill-opacity="1" fill="#ff0000"><g transform="translate(139.527025, 190.486303)"><g><path d="M 22.828125 -8.5 L 21.53125 -7.375 C 21.46875 -7.320312 21.40625 -7.222656 21.34375 -7.078125 C 21.289062 -6.929688 21.148438 -6.800781 20.921875 -6.6875 L 20.65625 -6.34375 C 20.25 -6.164062 20.164062 -5.960938 20.40625 -5.734375 C 20.226562 -5.617188 20.066406 -5.488281 19.921875 -5.34375 C 19.773438 -5.195312 19.675781 -4.976562 19.625 -4.6875 L 19.625 -4.59375 C 19.5625 -4.476562 19.472656 -4.347656 19.359375 -4.203125 C 19.242188 -4.066406 19.15625 -3.96875 19.09375 -3.90625 C 18.8125 -3.613281 18.4375 -3.296875 17.96875 -2.953125 L 16.328125 -1.65625 C 15.972656 -1.476562 15.648438 -1.300781 15.359375 -1.125 C 15.078125 -0.957031 14.789062 -0.753906 14.5 -0.515625 C 14.09375 -0.285156 13.710938 -0.0390625 13.359375 0.21875 C 13.015625 0.476562 12.613281 0.695312 12.15625 0.875 C 11.925781 0.988281 11.648438 1.054688 11.328125 1.078125 C 11.003906 1.109375 10.703125 1.15625 10.421875 1.21875 C 10.179688 1.21875 9.921875 1.300781 9.640625 1.46875 C 9.460938 1.53125 9.257812 1.585938 9.03125 1.640625 C 8.800781 1.703125 8.566406 1.765625 8.328125 1.828125 C 7.984375 1.878906 7.648438 1.945312 7.328125 2.03125 C 7.015625 2.125 6.6875 2.140625 6.34375 2.078125 C 5.351562 1.960938 4.484375 1.789062 3.734375 1.5625 C 3.328125 1.445312 3.007812 1.332031 2.78125 1.21875 C 2.550781 1.101562 2.203125 0.867188 1.734375 0.515625 C 1.679688 0.398438 1.609375 0.328125 1.515625 0.296875 C 1.429688 0.273438 1.359375 0.234375 1.296875 0.171875 C 1.015625 -0.0546875 0.769531 -0.300781 0.5625 -0.5625 C 0.363281 -0.820312 0.117188 -1.15625 -0.171875 -1.5625 C -0.234375 -1.675781 -0.273438 -1.773438 -0.296875 -1.859375 C -0.328125 -1.953125 -0.398438 -2.203125 -0.515625 -2.609375 C -0.753906 -3.128906 -0.875 -3.5625 -0.875 -3.90625 C -0.875 -4.25 -0.875 -4.566406 -0.875 -4.859375 C -0.75 -6.597656 -0.285156 -8.273438 0.515625 -9.890625 C 0.691406 -10.179688 0.863281 -10.457031 1.03125 -10.71875 C 1.207031 -10.976562 1.414062 -11.222656 1.65625 -11.453125 C 2.050781 -11.921875 2.4375 -12.382812 2.8125 -12.84375 C 3.195312 -13.3125 3.59375 -13.75 4 -14.15625 C 4.863281 -15.019531 5.816406 -15.484375 6.859375 -15.546875 C 6.972656 -15.546875 7.101562 -15.554688 7.25 -15.578125 C 7.394531 -15.609375 7.550781 -15.65625 7.71875 -15.71875 C 8.1875 -15.882812 8.609375 -15.863281 8.984375 -15.65625 C 9.359375 -15.457031 9.691406 -15.273438 9.984375 -15.109375 C 10.390625 -14.929688 10.765625 -14.726562 11.109375 -14.5 C 11.460938 -14.269531 11.78125 -14.007812 12.0625 -13.71875 C 12.414062 -13.488281 12.675781 -13.082031 12.84375 -12.5 C 13.019531 -11.925781 13.050781 -11.460938 12.9375 -11.109375 C 12.757812 -10.648438 12.523438 -10.273438 12.234375 -9.984375 C 11.835938 -9.578125 11.445312 -9.171875 11.0625 -8.765625 C 10.6875 -8.359375 10.296875 -7.953125 9.890625 -7.546875 C 9.773438 -7.429688 9.613281 -7.332031 9.40625 -7.25 C 9.207031 -7.164062 9.082031 -7.0625 9.03125 -6.9375 C 8.96875 -6.65625 8.820312 -6.46875 8.59375 -6.375 C 8.363281 -6.289062 8.160156 -6.191406 7.984375 -6.078125 L 6.765625 -5.203125 C 6.710938 -5.148438 6.6875 -5.078125 6.6875 -4.984375 C 6.6875 -4.898438 6.65625 -4.832031 6.59375 -4.78125 C 6.300781 -4.601562 5.992188 -4.441406 5.671875 -4.296875 C 5.359375 -4.148438 5.0625 -3.988281 4.78125 -3.8125 C 4.65625 -3.757812 4.550781 -3.6875 4.46875 -3.59375 C 4.382812 -3.507812 4.285156 -3.410156 4.171875 -3.296875 C 3.816406 -3.117188 3.535156 -2.988281 3.328125 -2.90625 C 3.128906 -2.820312 2.890625 -2.691406 2.609375 -2.515625 C 2.773438 -1.992188 2.929688 -1.644531 3.078125 -1.46875 C 3.222656 -1.300781 3.46875 -1.160156 3.8125 -1.046875 C 4.394531 -1.097656 4.960938 -1.125 5.515625 -1.125 C 6.066406 -1.125 6.628906 -1.15625 7.203125 -1.21875 C 7.609375 -1.269531 8 -1.367188 8.375 -1.515625 C 8.75 -1.660156 9.140625 -1.789062 9.546875 -1.90625 C 9.835938 -2.019531 10.15625 -2.164062 10.5 -2.34375 C 10.851562 -2.519531 11.203125 -2.664062 11.546875 -2.78125 C 11.773438 -2.894531 11.988281 -2.960938 12.1875 -2.984375 C 12.394531 -3.015625 12.613281 -3.09375 12.84375 -3.21875 L 15.71875 -4.859375 L 15.96875 -5.03125 C 16.375 -5.320312 16.925781 -5.671875 17.625 -6.078125 C 18.320312 -6.484375 18.867188 -6.800781 19.265625 -7.03125 C 19.441406 -7.144531 19.644531 -7.257812 19.875 -7.375 C 20.113281 -7.488281 20.257812 -7.578125 20.3125 -7.640625 L 23.265625 -9.8125 L 23.4375 -9.203125 C 23.4375 -9.203125 23.453125 -9.203125 23.484375 -9.203125 C 23.515625 -9.203125 23.53125 -9.171875 23.53125 -9.109375 C 23.414062 -9.054688 23.296875 -8.972656 23.171875 -8.859375 C 23.054688 -8.742188 22.941406 -8.625 22.828125 -8.5 Z M 3.125 -7.8125 C 3.007812 -7.582031 2.90625 -7.304688 2.8125 -6.984375 C 2.726562 -6.671875 2.628906 -6.335938 2.515625 -5.984375 C 2.859375 -6.222656 3.144531 -6.410156 3.375 -6.546875 C 3.613281 -6.691406 3.820312 -6.820312 4 -6.9375 L 6.34375 -8.859375 L 8.6875 -10.9375 C 8.96875 -11.164062 9.195312 -11.410156 9.375 -11.671875 C 9.550781 -11.929688 9.722656 -12.207031 9.890625 -12.5 C 10.003906 -12.726562 9.988281 -12.988281 9.84375 -13.28125 C 9.707031 -13.570312 9.550781 -13.660156 9.375 -13.546875 C 8.96875 -13.367188 8.578125 -13.25 8.203125 -13.1875 C 7.828125 -13.132812 7.46875 -12.960938 7.125 -12.671875 C 6.71875 -12.378906 6.320312 -12.101562 5.9375 -11.84375 C 5.5625 -11.582031 5.234375 -11.25 4.953125 -10.84375 C 4.316406 -9.976562 3.707031 -8.96875 3.125 -7.8125 Z M 3.125 -7.8125"/></g></g></g><g fill-opacity="1" fill="#000000"><g transform="translate(161.408098, 190.486303)"><g><path d="M 28.046875 8.6875 C 27.867188 8.738281 27.398438 8.75 26.640625 8.71875 C 25.890625 8.695312 25.316406 8.507812 24.921875 8.15625 C 24.515625 7.925781 24.164062 7.59375 23.875 7.15625 C 23.582031 6.726562 23.320312 6.253906 23.09375 5.734375 C 23.03125 5.328125 22.894531 4.847656 22.6875 4.296875 C 22.488281 3.742188 22.363281 3.179688 22.3125 2.609375 C 22.3125 2.023438 22.265625 1.441406 22.171875 0.859375 C 22.085938 0.285156 22.078125 -0.203125 22.140625 -0.609375 L 22.046875 -2.515625 C 21.816406 -2.578125 21.472656 -2.429688 21.015625 -2.078125 C 21.015625 -2.023438 20.984375 -1.984375 20.921875 -1.953125 C 20.859375 -1.921875 20.800781 -1.878906 20.75 -1.828125 C 20.164062 -1.242188 19.582031 -0.71875 19 -0.25 C 18.425781 0.207031 17.910156 0.722656 17.453125 1.296875 C 17.160156 1.703125 16.8125 1.992188 16.40625 2.171875 C 16 2.347656 15.625 2.578125 15.28125 2.859375 L 14.671875 3.390625 C 14.554688 3.390625 14.425781 3.375 14.28125 3.34375 C 14.132812 3.3125 13.945312 3.269531 13.71875 3.21875 L 12.765625 2.78125 C 12.472656 2.832031 12.269531 2.6875 12.15625 2.34375 C 12.15625 2.226562 12.109375 2.15625 12.015625 2.125 C 11.929688 2.09375 11.863281 2.019531 11.8125 1.90625 C 11.75 1.789062 11.660156 1.6875 11.546875 1.59375 C 11.429688 1.507812 11.375 1.441406 11.375 1.390625 L 10.84375 -0.515625 C 10.96875 -1.148438 11.113281 -1.988281 11.28125 -3.03125 C 11.457031 -4.070312 11.578125 -4.914062 11.640625 -5.5625 C 11.691406 -5.613281 11.628906 -5.785156 11.453125 -6.078125 C 10.929688 -5.441406 10.453125 -4.847656 10.015625 -4.296875 C 9.585938 -3.742188 9.257812 -3.320312 9.03125 -3.03125 L 7.71875 -1.390625 L 7.203125 -0.265625 C 6.796875 0.316406 6.40625 0.910156 6.03125 1.515625 C 5.65625 2.128906 5.265625 2.753906 4.859375 3.390625 C 4.742188 3.617188 4.570312 3.789062 4.34375 3.90625 C 4.113281 4.019531 3.910156 4.164062 3.734375 4.34375 C 3.503906 4.457031 3.359375 4.628906 3.296875 4.859375 L 2.609375 5.375 L 1.46875 4.6875 C 0.945312 4.050781 0.75 3.210938 0.875 2.171875 C 0.988281 0.660156 1.1875 -0.800781 1.46875 -2.21875 C 1.757812 -3.632812 2.109375 -5.066406 2.515625 -6.515625 C 2.742188 -7.316406 2.929688 -8.148438 3.078125 -9.015625 C 3.222656 -9.890625 3.410156 -10.734375 3.640625 -11.546875 C 3.640625 -11.773438 3.664062 -11.988281 3.71875 -12.1875 C 3.78125 -12.394531 3.753906 -12.585938 3.640625 -12.765625 C 3.585938 -12.878906 3.617188 -13.007812 3.734375 -13.15625 C 3.847656 -13.300781 3.90625 -13.398438 3.90625 -13.453125 C 4.25 -13.398438 4.519531 -13.375 4.71875 -13.375 C 4.925781 -13.375 5.144531 -13.316406 5.375 -13.203125 C 5.664062 -13.140625 5.925781 -13.035156 6.15625 -12.890625 C 6.394531 -12.742188 6.539062 -12.46875 6.59375 -12.0625 C 6.769531 -11.195312 6.710938 -10.300781 6.421875 -9.375 C 6.367188 -8.789062 6.28125 -8.222656 6.15625 -7.671875 C 6.039062 -7.128906 5.898438 -6.539062 5.734375 -5.90625 C 5.671875 -5.550781 5.460938 -4.851562 5.109375 -3.8125 C 4.765625 -2.769531 4.535156 -2.019531 4.421875 -1.5625 C 4.710938 -1.675781 4.890625 -1.765625 4.953125 -1.828125 C 5.066406 -2.109375 5.253906 -2.453125 5.515625 -2.859375 C 5.773438 -3.265625 6.191406 -3.929688 6.765625 -4.859375 C 7.171875 -5.328125 7.546875 -5.863281 7.890625 -6.46875 C 8.242188 -7.070312 8.648438 -7.609375 9.109375 -8.078125 C 9.398438 -8.359375 9.691406 -8.671875 9.984375 -9.015625 C 10.273438 -9.367188 10.59375 -9.660156 10.9375 -9.890625 C 11.226562 -10.128906 11.546875 -10.101562 11.890625 -9.8125 C 12.523438 -9.113281 13.25 -8.878906 14.0625 -9.109375 C 14.238281 -9.222656 14.398438 -9.25 14.546875 -9.1875 C 14.691406 -9.132812 14.847656 -9.109375 15.015625 -9.109375 C 15.128906 -8.828125 15.1875 -8.507812 15.1875 -8.15625 C 15.1875 -7.8125 15.21875 -7.46875 15.28125 -7.125 C 15.394531 -6.832031 15.421875 -6.570312 15.359375 -6.34375 C 15.304688 -5.9375 15.289062 -5.539062 15.3125 -5.15625 C 15.34375 -4.78125 15.273438 -4.421875 15.109375 -4.078125 C 14.992188 -3.734375 14.890625 -3.171875 14.796875 -2.390625 C 14.710938 -1.609375 14.613281 -0.984375 14.5 -0.515625 C 15.070312 -0.984375 15.675781 -1.519531 16.3125 -2.125 C 16.957031 -2.726562 17.507812 -3.234375 17.96875 -3.640625 C 18.550781 -4.109375 19.128906 -4.515625 19.703125 -4.859375 C 19.878906 -4.972656 20.066406 -5.101562 20.265625 -5.25 C 20.472656 -5.394531 20.75 -5.613281 21.09375 -5.90625 C 21.5625 -6.070312 21.851562 -6.070312 21.96875 -5.90625 C 22.425781 -5.789062 22.785156 -5.628906 23.046875 -5.421875 C 23.304688 -5.222656 23.640625 -5.035156 24.046875 -4.859375 L 24.5625 -4.078125 C 24.96875 -4.078125 25.195312 -3.898438 25.25 -3.546875 C 25.3125 -3.203125 25.316406 -2.890625 25.265625 -2.609375 C 25.316406 -2.492188 25.34375 -2.332031 25.34375 -2.125 C 25.34375 -1.925781 25.34375 -1.707031 25.34375 -1.46875 L 25.34375 -1.046875 C 25.175781 -0.804688 25.132812 -0.539062 25.21875 -0.25 C 25.300781 0.03125 25.316406 0.316406 25.265625 0.609375 C 25.316406 1.015625 25.359375 1.40625 25.390625 1.78125 C 25.421875 2.15625 25.460938 2.515625 25.515625 2.859375 C 25.640625 3.097656 25.710938 3.375 25.734375 3.6875 C 25.765625 4.007812 25.894531 4.570312 26.125 5.375 C 26.644531 6.476562 27.457031 6.828125 28.5625 6.421875 C 28.675781 6.304688 28.789062 6.363281 28.90625 6.59375 C 29.019531 6.820312 29.019531 7.023438 28.90625 7.203125 C 28.90625 7.265625 28.789062 7.410156 28.5625 7.640625 C 28.5625 7.753906 28.546875 7.882812 28.515625 8.03125 C 28.484375 8.175781 28.328125 8.394531 28.046875 8.6875 Z M 28.046875 8.6875"/></g></g></g><g fill-opacity="1" fill="#000000"><g transform="translate(193.264348, 190.486303)"><g><path d="M 22.828125 -8.5 L 21.53125 -7.375 C 21.46875 -7.320312 21.40625 -7.222656 21.34375 -7.078125 C 21.289062 -6.929688 21.148438 -6.800781 20.921875 -6.6875 L 20.65625 -6.34375 C 20.25 -6.164062 20.164062 -5.960938 20.40625 -5.734375 C 20.226562 -5.617188 20.066406 -5.488281 19.921875 -5.34375 C 19.773438 -5.195312 19.675781 -4.976562 19.625 -4.6875 L 19.625 -4.59375 C 19.5625 -4.476562 19.472656 -4.347656 19.359375 -4.203125 C 19.242188 -4.066406 19.15625 -3.96875 19.09375 -3.90625 C 18.8125 -3.613281 18.4375 -3.296875 17.96875 -2.953125 L 16.328125 -1.65625 C 15.972656 -1.476562 15.648438 -1.300781 15.359375 -1.125 C 15.078125 -0.957031 14.789062 -0.753906 14.5 -0.515625 C 14.09375 -0.285156 13.710938 -0.0390625 13.359375 0.21875 C 13.015625 0.476562 12.613281 0.695312 12.15625 0.875 C 11.925781 0.988281 11.648438 1.054688 11.328125 1.078125 C 11.003906 1.109375 10.703125 1.15625 10.421875 1.21875 C 10.179688 1.21875 9.921875 1.300781 9.640625 1.46875 C 9.460938 1.53125 9.257812 1.585938 9.03125 1.640625 C 8.800781 1.703125 8.566406 1.765625 8.328125 1.828125 C 7.984375 1.878906 7.648438 1.945312 7.328125 2.03125 C 7.015625 2.125 6.6875 2.140625 6.34375 2.078125 C 5.351562 1.960938 4.484375 1.789062 3.734375 1.5625 C 3.328125 1.445312 3.007812 1.332031 2.78125 1.21875 C 2.550781 1.101562 2.203125 0.867188 1.734375 0.515625 C 1.679688 0.398438 1.609375 0.328125 1.515625 0.296875 C 1.429688 0.273438 1.359375 0.234375 1.296875 0.171875 C 1.015625 -0.0546875 0.769531 -0.300781 0.5625 -0.5625 C 0.363281 -0.820312 0.117188 -1.15625 -0.171875 -1.5625 C -0.234375 -1.675781 -0.273438 -1.773438 -0.296875 -1.859375 C -0.328125 -1.953125 -0.398438 -2.203125 -0.515625 -2.609375 C -0.753906 -3.128906 -0.875 -3.5625 -0.875 -3.90625 C -0.875 -4.25 -0.875 -4.566406 -0.875 -4.859375 C -0.75 -6.597656 -0.285156 -8.273438 0.515625 -9.890625 C 0.691406 -10.179688 0.863281 -10.457031 1.03125 -10.71875 C 1.207031 -10.976562 1.414062 -11.222656 1.65625 -11.453125 C 2.050781 -11.921875 2.4375 -12.382812 2.8125 -12.84375 C 3.195312 -13.3125 3.59375 -13.75 4 -14.15625 C 4.863281 -15.019531 5.816406 -15.484375 6.859375 -15.546875 C 6.972656 -15.546875 7.101562 -15.554688 7.25 -15.578125 C 7.394531 -15.609375 7.550781 -15.65625 7.71875 -15.71875 C 8.1875 -15.882812 8.609375 -15.863281 8.984375 -15.65625 C 9.359375 -15.457031 9.691406 -15.273438 9.984375 -15.109375 C 10.390625 -14.929688 10.765625 -14.726562 11.109375 -14.5 C 11.460938 -14.269531 11.78125 -14.007812 12.0625 -13.71875 C 12.414062 -13.488281 12.675781 -13.082031 12.84375 -12.5 C 13.019531 -11.925781 13.050781 -11.460938 12.9375 -11.109375 C 12.757812 -10.648438 12.523438 -10.273438 12.234375 -9.984375 C 11.835938 -9.578125 11.445312 -9.171875 11.0625 -8.765625 C 10.6875 -8.359375 10.296875 -7.953125 9.890625 -7.546875 C 9.773438 -7.429688 9.613281 -7.332031 9.40625 -7.25 C 9.207031 -7.164062 9.082031 -7.0625 9.03125 -6.9375 C 8.96875 -6.65625 8.820312 -6.46875 8.59375 -6.375 C 8.363281 -6.289062 8.160156 -6.191406 7.984375 -6.078125 L 6.765625 -5.203125 C 6.710938 -5.148438 6.6875 -5.078125 6.6875 -4.984375 C 6.6875 -4.898438 6.65625 -4.832031 6.59375 -4.78125 C 6.300781 -4.601562 5.992188 -4.441406 5.671875 -4.296875 C 5.359375 -4.148438 5.0625 -3.988281 4.78125 -3.8125 C 4.65625 -3.757812 4.550781 -3.6875 4.46875 -3.59375 C 4.382812 -3.507812 4.285156 -3.410156 4.171875 -3.296875 C 3.816406 -3.117188 3.535156 -2.988281 3.328125 -2.90625 C 3.128906 -2.820312 2.890625 -2.691406 2.609375 -2.515625 C 2.773438 -1.992188 2.929688 -1.644531 3.078125 -1.46875 C 3.222656 -1.300781 3.46875 -1.160156 3.8125 -1.046875 C 4.394531 -1.097656 4.960938 -1.125 5.515625 -1.125 C 6.066406 -1.125 6.628906 -1.15625 7.203125 -1.21875 C 7.609375 -1.269531 8 -1.367188 8.375 -1.515625 C 8.75 -1.660156 9.140625 -1.789062 9.546875 -1.90625 C 9.835938 -2.019531 10.15625 -2.164062 10.5 -2.34375 C 10.851562 -2.519531 11.203125 -2.664062 11.546875 -2.78125 C 11.773438 -2.894531 11.988281 -2.960938 12.1875 -2.984375 C 12.394531 -3.015625 12.613281 -3.09375 12.84375 -3.21875 L 15.71875 -4.859375 L 15.96875 -5.03125 C 16.375 -5.320312 16.925781 -5.671875 17.625 -6.078125 C 18.320312 -6.484375 18.867188 -6.800781 19.265625 -7.03125 C 19.441406 -7.144531 19.644531 -7.257812 19.875 -7.375 C 20.113281 -7.488281 20.257812 -7.578125 20.3125 -7.640625 L 23.265625 -9.8125 L 23.4375 -9.203125 C 23.4375 -9.203125 23.453125 -9.203125 23.484375 -9.203125 C 23.515625 -9.203125 23.53125 -9.171875 23.53125 -9.109375 C 23.414062 -9.054688 23.296875 -8.972656 23.171875 -8.859375 C 23.054688 -8.742188 22.941406 -8.625 22.828125 -8.5 Z M 3.125 -7.8125 C 3.007812 -7.582031 2.90625 -7.304688 2.8125 -6.984375 C 2.726562 -6.671875 2.628906 -6.335938 2.515625 -5.984375 C 2.859375 -6.222656 3.144531 -6.410156 3.375 -6.546875 C 3.613281 -6.691406 3.820312 -6.820312 4 -6.9375 L 6.34375 -8.859375 L 8.6875 -10.9375 C 8.96875 -11.164062 9.195312 -11.410156 9.375 -11.671875 C 9.550781 -11.929688 9.722656 -12.207031 9.890625 -12.5 C 10.003906 -12.726562 9.988281 -12.988281 9.84375 -13.28125 C 9.707031 -13.570312 9.550781 -13.660156 9.375 -13.546875 C 8.96875 -13.367188 8.578125 -13.25 8.203125 -13.1875 C 7.828125 -13.132812 7.46875 -12.960938 7.125 -12.671875 C 6.71875 -12.378906 6.320312 -12.101562 5.9375 -11.84375 C 5.5625 -11.582031 5.234375 -11.25 4.953125 -10.84375 C 4.316406 -9.976562 3.707031 -8.96875 3.125 -7.8125 Z M 3.125 -7.8125"/></g></g></g><g fill-opacity="1" fill="#ff0000"><g transform="translate(215.138684, 190.486303)"><g><path d="M 7.203125 3.8125 C 6.742188 3.8125 6.425781 3.609375 6.25 3.203125 C 6.070312 2.804688 6.039062 2.550781 6.15625 2.4375 C 6.445312 1.96875 6.648438 1.488281 6.765625 1 C 6.878906 0.507812 7.054688 0.0859375 7.296875 -0.265625 C 7.578125 -0.546875 7.847656 -0.757812 8.109375 -0.90625 C 8.367188 -1.050781 8.703125 -1.066406 9.109375 -0.953125 C 9.460938 -0.953125 9.707031 -0.9375 9.84375 -0.90625 C 9.988281 -0.882812 10.179688 -0.84375 10.421875 -0.78125 C 10.765625 -0.78125 11.109375 -0.578125 11.453125 -0.171875 C 11.515625 0.117188 11.53125 0.394531 11.5 0.65625 C 11.46875 0.914062 11.3125 1.21875 11.03125 1.5625 C 10.738281 2.144531 10.5625 2.476562 10.5 2.5625 C 10.445312 2.644531 10.242188 2.832031 9.890625 3.125 C 9.484375 3.53125 9.019531 3.789062 8.5 3.90625 C 7.976562 4.019531 7.546875 3.988281 7.203125 3.8125 Z M 7.203125 3.8125"/></g></g></g><g fill-opacity="1" fill="#000000"><g transform="translate(231.726807, 190.486303)"><g><path d="M 51.734375 13.890625 C 51.617188 14.003906 51.519531 14.117188 51.4375 14.234375 C 51.351562 14.347656 51.222656 14.460938 51.046875 14.578125 L 49.75 15.453125 L 49.921875 15.453125 L 49.921875 15.625 C 49.453125 15.851562 49 15.992188 48.5625 16.046875 C 48.132812 16.109375 47.6875 16.113281 47.21875 16.0625 L 43.578125 15.890625 C 43.171875 15.710938 42.617188 15.492188 41.921875 15.234375 C 41.234375 14.972656 40.597656 14.726562 40.015625 14.5 C 39.441406 14.269531 39.097656 14.179688 38.984375 14.234375 C 38.222656 13.941406 37.523438 13.609375 36.890625 13.234375 C 36.253906 12.859375 35.59375 12.46875 34.90625 12.0625 C 33.976562 11.601562 33.019531 11.066406 32.03125 10.453125 C 31.050781 9.847656 30.066406 9.257812 29.078125 8.6875 C 28.617188 8.394531 27.925781 8 27 7.5 C 26.070312 7.007812 25.144531 6.503906 24.21875 5.984375 C 23.289062 5.460938 22.566406 5.117188 22.046875 4.953125 L 20.40625 4.515625 C 19.1875 4.222656 18.085938 4.078125 17.109375 4.078125 C 16.460938 4.078125 15.78125 4.132812 15.0625 4.25 C 14.34375 4.363281 13.578125 4.65625 12.765625 5.125 C 12.585938 5.175781 12.453125 5.300781 12.359375 5.5 C 12.273438 5.707031 12.175781 5.898438 12.0625 6.078125 C 12.007812 6.191406 11.878906 6.273438 11.671875 6.328125 C 11.472656 6.390625 11.316406 6.476562 11.203125 6.59375 L 10.9375 7.203125 C 10.707031 7.265625 10.503906 7.378906 10.328125 7.546875 L 10.0625 8.6875 C 9.894531 8.914062 9.707031 9.128906 9.5 9.328125 C 9.300781 9.535156 9.144531 9.753906 9.03125 9.984375 C 8.96875 10.097656 8.878906 10.238281 8.765625 10.40625 C 8.648438 10.582031 8.5625 10.757812 8.5 10.9375 C 8.15625 11.40625 7.894531 11.898438 7.71875 12.421875 C 7.550781 12.941406 7.492188 13.660156 7.546875 14.578125 C 7.378906 14.816406 7.207031 14.890625 7.03125 14.796875 C 6.851562 14.710938 6.679688 14.671875 6.515625 14.671875 C 6.222656 14.785156 5.988281 14.671875 5.8125 14.328125 C 5.695312 14.148438 5.550781 13.972656 5.375 13.796875 C 5.207031 13.628906 5.066406 13.457031 4.953125 13.28125 L 4.34375 11.453125 C 4.226562 10.992188 4.171875 10.648438 4.171875 10.421875 C 4.171875 9.835938 4.253906 9.113281 4.421875 8.25 C 4.535156 7.957031 4.679688 7.59375 4.859375 7.15625 C 5.035156 6.726562 5.179688 6.367188 5.296875 6.078125 L 6.6875 4.25 C 7.207031 3.789062 7.625 3.398438 7.9375 3.078125 C 8.257812 2.765625 8.707031 2.460938 9.28125 2.171875 L 10.421875 1.5625 C 11.054688 1.269531 11.601562 0.78125 12.0625 0.09375 C 12.757812 -1.125 13.457031 -2.425781 14.15625 -3.8125 L 16.921875 -9.71875 L 17.96875 -11.984375 C 16.582031 -11.347656 15.28125 -10.882812 14.0625 -10.59375 L 12.84375 -10.328125 C 11.507812 -10.035156 10.207031 -9.890625 8.9375 -9.890625 C 8.707031 -9.890625 8.546875 -9.945312 8.453125 -10.0625 C 8.367188 -10.1875 8.242188 -10.304688 8.078125 -10.421875 C 7.898438 -10.703125 7.78125 -10.972656 7.71875 -11.234375 C 7.664062 -11.503906 7.523438 -11.695312 7.296875 -11.8125 C 7.234375 -12.269531 7.273438 -12.597656 7.421875 -12.796875 C 7.566406 -13.003906 7.640625 -13.109375 7.640625 -13.109375 L 8.765625 -12.84375 C 9.054688 -12.789062 9.332031 -12.773438 9.59375 -12.796875 C 9.851562 -12.828125 10.15625 -12.84375 10.5 -12.84375 C 10.789062 -12.90625 11.035156 -12.945312 11.234375 -12.96875 C 11.441406 -13 11.71875 -13.046875 12.0625 -13.109375 C 12.875 -13.335938 13.410156 -13.476562 13.671875 -13.53125 C 13.929688 -13.59375 14.265625 -13.679688 14.671875 -13.796875 C 15.828125 -14.148438 16.707031 -14.441406 17.3125 -14.671875 C 17.925781 -14.898438 18.695312 -15.273438 19.625 -15.796875 C 20.664062 -18.109375 21.585938 -20.367188 22.390625 -22.578125 C 22.972656 -23.960938 23.597656 -25.507812 24.265625 -27.21875 C 24.929688 -28.925781 25.609375 -30.546875 26.296875 -32.078125 C 26.992188 -33.609375 27.632812 -34.835938 28.21875 -35.765625 C 29.257812 -37.441406 30.503906 -38.742188 31.953125 -39.671875 C 33.398438 -40.597656 35.019531 -40.945312 36.8125 -40.71875 C 38.488281 -40.539062 39.554688 -39.929688 40.015625 -38.890625 C 40.484375 -37.847656 40.660156 -36.804688 40.546875 -35.765625 C 40.484375 -35.128906 40.347656 -34.363281 40.140625 -33.46875 C 39.941406 -32.570312 39.671875 -31.773438 39.328125 -31.078125 C 38.335938 -29.054688 36.628906 -26.625 34.203125 -23.78125 C 31.773438 -20.945312 28.160156 -18.023438 23.359375 -15.015625 C 23.003906 -14.085938 22.625 -13.144531 22.21875 -12.1875 C 21.8125 -11.238281 21.492188 -10.503906 21.265625 -9.984375 C 20.921875 -9.234375 20.441406 -8.234375 19.828125 -6.984375 C 19.222656 -5.742188 18.660156 -4.628906 18.140625 -3.640625 C 17.617188 -2.660156 17.300781 -2.113281 17.1875 -2 L 16.0625 0.265625 L 15.015625 1.734375 C 15.828125 1.617188 16.535156 1.5625 17.140625 1.5625 C 17.753906 1.5625 18.378906 1.617188 19.015625 1.734375 C 19.828125 1.847656 20.445312 1.992188 20.875 2.171875 C 21.3125 2.347656 21.816406 2.492188 22.390625 2.609375 L 23.4375 3.03125 L 24.21875 3.5625 L 25.265625 3.90625 L 26.484375 4.6875 L 27 5.03125 C 27.175781 5.320312 27.4375 5.582031 27.78125 5.8125 C 28.125 6.039062 28.472656 6.128906 28.828125 6.078125 C 29.347656 6.128906 29.78125 6.316406 30.125 6.640625 C 30.46875 6.960938 30.898438 7.207031 31.421875 7.375 L 32.296875 8.15625 C 32.410156 8.101562 32.476562 8.085938 32.5 8.109375 C 32.53125 8.140625 32.546875 8.15625 32.546875 8.15625 C 33.015625 8.738281 33.597656 9.113281 34.296875 9.28125 C 34.523438 9.226562 34.722656 9.285156 34.890625 9.453125 C 35.066406 9.628906 35.210938 9.773438 35.328125 9.890625 C 35.441406 9.890625 35.554688 9.929688 35.671875 10.015625 C 35.796875 10.109375 35.882812 10.1875 35.9375 10.25 C 36.40625 10.25 36.738281 10.332031 36.9375 10.5 C 37.144531 10.675781 37.390625 10.910156 37.671875 11.203125 C 37.847656 11.367188 38.035156 11.421875 38.234375 11.359375 C 38.441406 11.304688 38.632812 11.335938 38.8125 11.453125 C 39.445312 11.804688 40.050781 12.082031 40.625 12.28125 C 41.207031 12.488281 41.785156 12.734375 42.359375 13.015625 C 42.941406 13.253906 43.476562 13.382812 43.96875 13.40625 C 44.457031 13.4375 45.019531 13.507812 45.65625 13.625 C 46.46875 13.738281 47.507812 13.738281 48.78125 13.625 L 50.4375 13.546875 L 50.4375 13.71875 Z M 27.78125 -27 C 27.894531 -27.050781 27.9375 -27.003906 27.90625 -26.859375 C 27.875 -26.722656 27.800781 -26.65625 27.6875 -26.65625 C 27.6875 -26.539062 27.539062 -26.0625 27.25 -25.21875 C 26.96875 -24.375 26.609375 -23.414062 26.171875 -22.34375 C 25.734375 -21.28125 25.34375 -20.316406 25 -19.453125 L 27.171875 -21.09375 C 29.367188 -22.769531 31.117188 -24.414062 32.421875 -26.03125 C 33.722656 -27.65625 34.867188 -29.394531 35.859375 -31.25 C 36.316406 -32.113281 36.675781 -33.023438 36.9375 -33.984375 C 37.195312 -34.941406 37.328125 -35.851562 37.328125 -36.71875 C 37.328125 -37.125 37.210938 -37.554688 36.984375 -38.015625 C 36.753906 -38.484375 36.289062 -38.6875 35.59375 -38.625 C 34.957031 -38.507812 34.4375 -38.3125 34.03125 -38.03125 L 33.078125 -37.25 C 32.847656 -37.007812 32.613281 -36.757812 32.375 -36.5 C 32.144531 -36.238281 31.742188 -35.53125 31.171875 -34.375 C 31.171875 -34.375 31.171875 -34.347656 31.171875 -34.296875 C 30.585938 -33.253906 30.148438 -32.351562 29.859375 -31.59375 C 29.566406 -31.363281 29.390625 -31.0625 29.328125 -30.6875 C 29.273438 -30.3125 29.109375 -30.007812 28.828125 -29.78125 C 28.765625 -29.71875 28.789062 -29.6875 28.90625 -29.6875 C 29.019531 -29.6875 29.050781 -29.660156 29 -29.609375 C 28.9375 -29.484375 28.875 -29.320312 28.8125 -29.125 C 28.757812 -28.925781 28.617188 -28.765625 28.390625 -28.640625 C 28.503906 -28.410156 28.488281 -28.179688 28.34375 -27.953125 C 28.195312 -27.722656 28.097656 -27.460938 28.046875 -27.171875 C 28.046875 -27.109375 28.015625 -27.078125 27.953125 -27.078125 C 27.890625 -27.078125 27.832031 -27.050781 27.78125 -27 Z M 27.78125 -27"/></g></g></g><g fill-opacity="1" fill="#000000"><g transform="translate(270.961207, 190.486303)"><g><path d="M 7.203125 -19.015625 C 7.085938 -19.128906 6.925781 -19.226562 6.71875 -19.3125 C 6.519531 -19.40625 6.363281 -19.507812 6.25 -19.625 C 5.726562 -20.195312 5.554688 -20.921875 5.734375 -21.796875 C 5.960938 -22.429688 6.289062 -22.9375 6.71875 -23.3125 C 7.15625 -23.6875 7.664062 -24.019531 8.25 -24.3125 C 8.300781 -24.363281 8.382812 -24.390625 8.5 -24.390625 C 8.625 -24.390625 8.6875 -24.390625 8.6875 -24.390625 C 9.601562 -24.453125 10.148438 -24.191406 10.328125 -23.609375 C 10.441406 -23.203125 10.554688 -22.753906 10.671875 -22.265625 C 10.785156 -21.773438 10.757812 -21.296875 10.59375 -20.828125 C 10.414062 -20.367188 10.148438 -19.992188 9.796875 -19.703125 C 9.453125 -19.410156 9.082031 -19.125 8.6875 -18.84375 C 8.164062 -18.664062 7.671875 -18.722656 7.203125 -19.015625 Z M 18.921875 -9.71875 L 18.84375 -9.640625 C 18.84375 -9.640625 18.664062 -9.363281 18.3125 -8.8125 C 17.96875 -8.257812 17.59375 -7.691406 17.1875 -7.109375 C 16.78125 -6.535156 16.492188 -6.132812 16.328125 -5.90625 C 16.148438 -5.675781 15.972656 -5.34375 15.796875 -4.90625 C 15.628906 -4.46875 15.222656 -3.816406 14.578125 -2.953125 L 13.625 -1.5625 C 13.570312 -1.5 13.515625 -1.410156 13.453125 -1.296875 C 13.398438 -1.179688 13.316406 -1.066406 13.203125 -0.953125 L 12.765625 -0.515625 C 12.410156 -0.285156 12.085938 -0.015625 11.796875 0.296875 C 11.515625 0.617188 11.226562 0.953125 10.9375 1.296875 C 10.644531 1.648438 10.210938 2.03125 9.640625 2.4375 C 9.460938 2.601562 9.257812 2.710938 9.03125 2.765625 C 8.800781 2.828125 8.539062 2.914062 8.25 3.03125 C 8.019531 3.15625 7.742188 3.285156 7.421875 3.421875 C 7.097656 3.566406 6.796875 3.726562 6.515625 3.90625 C 6.160156 3.96875 5.851562 3.953125 5.59375 3.859375 C 5.332031 3.773438 5.0625 3.703125 4.78125 3.640625 C 4.375 3.523438 4.039062 3.320312 3.78125 3.03125 C 3.519531 2.75 3.242188 2.488281 2.953125 2.25 C 2.890625 2.195312 2.84375 2.113281 2.8125 2 C 2.789062 1.882812 2.75 1.796875 2.6875 1.734375 C 2.632812 1.441406 2.488281 1.210938 2.25 1.046875 C 2.195312 0.867188 2.125 0.722656 2.03125 0.609375 C 1.945312 0.492188 1.878906 0.347656 1.828125 0.171875 C 1.765625 -0.578125 1.789062 -1.359375 1.90625 -2.171875 C 2.019531 -2.984375 2.195312 -3.765625 2.4375 -4.515625 C 2.550781 -5.085938 2.675781 -5.648438 2.8125 -6.203125 C 2.957031 -6.753906 3.117188 -7.320312 3.296875 -7.90625 C 3.472656 -8.707031 3.660156 -9.484375 3.859375 -10.234375 C 4.066406 -10.992188 4.285156 -11.78125 4.515625 -12.59375 L 4.515625 -13.28125 C 4.398438 -13.6875 4.515625 -13.890625 4.859375 -13.890625 C 4.972656 -13.953125 5.101562 -13.992188 5.25 -14.015625 C 5.394531 -14.046875 5.523438 -13.945312 5.640625 -13.71875 C 5.753906 -13.488281 5.941406 -13.300781 6.203125 -13.15625 C 6.460938 -13.007812 6.648438 -12.820312 6.765625 -12.59375 C 6.941406 -12.476562 7.128906 -12.332031 7.328125 -12.15625 C 7.535156 -11.976562 7.664062 -11.804688 7.71875 -11.640625 C 7.894531 -11.285156 7.925781 -10.847656 7.8125 -10.328125 C 7.8125 -10.097656 7.78125 -9.863281 7.71875 -9.625 C 7.664062 -9.394531 7.582031 -9.164062 7.46875 -8.9375 C 7.351562 -8.414062 7.207031 -7.894531 7.03125 -7.375 C 6.851562 -6.851562 6.679688 -6.304688 6.515625 -5.734375 C 6.453125 -5.554688 6.375 -5.378906 6.28125 -5.203125 C 6.195312 -5.035156 6.128906 -4.863281 6.078125 -4.6875 C 5.960938 -4.457031 5.90625 -4.3125 5.90625 -4.25 C 6.019531 -3.84375 6.003906 -3.453125 5.859375 -3.078125 C 5.710938 -2.703125 5.613281 -2.285156 5.5625 -1.828125 C 5.5625 -1.421875 5.515625 -1.03125 5.421875 -0.65625 C 5.335938 -0.28125 5.265625 0.140625 5.203125 0.609375 C 6.191406 0.316406 7.003906 -0.0859375 7.640625 -0.609375 C 8.335938 -1.242188 9.0625 -1.863281 9.8125 -2.46875 C 10.5625 -3.082031 11.253906 -3.707031 11.890625 -4.34375 C 12.585938 -4.976562 13.253906 -5.628906 13.890625 -6.296875 C 14.523438 -6.960938 15.160156 -7.582031 15.796875 -8.15625 C 16.316406 -8.625 16.851562 -9.101562 17.40625 -9.59375 C 17.957031 -10.082031 18.519531 -10.617188 19.09375 -11.203125 C 19.382812 -10.910156 19.328125 -10.414062 18.921875 -9.71875 Z M 18.921875 -9.71875"/></g></g></g><g fill-opacity="1" fill="#000000"><g transform="translate(288.495168, 190.486303)"><g><path d="M 16.671875 -31.953125 C 16.316406 -31.546875 16.140625 -31.222656 16.140625 -30.984375 C 16.140625 -30.753906 16.054688 -30.46875 15.890625 -30.125 L 15.71875 -29.859375 C 15.832031 -29.628906 15.785156 -29.441406 15.578125 -29.296875 C 15.378906 -29.148438 15.191406 -29.019531 15.015625 -28.90625 C 14.960938 -28.851562 14.878906 -28.625 14.765625 -28.21875 C 14.472656 -27.976562 14.328125 -27.6875 14.328125 -27.34375 C 14.328125 -27.226562 14.296875 -27.097656 14.234375 -26.953125 C 14.179688 -26.804688 14.15625 -26.675781 14.15625 -26.5625 C 13.914062 -26.101562 13.738281 -25.65625 13.625 -25.21875 C 13.507812 -24.78125 13.335938 -24.359375 13.109375 -23.953125 C 13.046875 -23.785156 12.925781 -23.628906 12.75 -23.484375 C 12.582031 -23.335938 12.441406 -23.175781 12.328125 -23 C 12.328125 -22.882812 12.382812 -22.828125 12.5 -22.828125 C 12.445312 -22.710938 12.421875 -22.566406 12.421875 -22.390625 C 12.421875 -22.222656 12.421875 -22.082031 12.421875 -21.96875 L 11.375 -19.625 C 11.195312 -19.101562 11.019531 -18.695312 10.84375 -18.40625 C 10.84375 -18.40625 10.8125 -18.40625 10.75 -18.40625 C 10.695312 -18.40625 10.644531 -18.375 10.59375 -18.3125 C 10.707031 -18.3125 10.789062 -18.328125 10.84375 -18.359375 C 10.90625 -18.390625 10.96875 -18.40625 11.03125 -18.40625 C 11.375 -18.519531 11.847656 -18.578125 12.453125 -18.578125 C 13.066406 -18.578125 13.488281 -18.609375 13.71875 -18.671875 C 14.238281 -18.722656 14.769531 -18.773438 15.3125 -18.828125 C 15.863281 -18.890625 16.285156 -18.953125 16.578125 -19.015625 C 17.210938 -19.179688 17.757812 -19.25 18.21875 -19.21875 C 18.6875 -19.195312 19.097656 -19.210938 19.453125 -19.265625 C 19.617188 -19.328125 19.890625 -19.375 20.265625 -19.40625 C 20.640625 -19.4375 20.945312 -19.453125 21.1875 -19.453125 C 21.238281 -19.453125 21.46875 -19.363281 21.875 -19.1875 C 21.9375 -19.1875 21.96875 -19.070312 21.96875 -18.84375 C 21.96875 -18.550781 21.585938 -18.375 20.828125 -18.3125 L 19.625 -17.890625 C 19.625 -17.710938 19.59375 -17.476562 19.53125 -17.1875 C 19.476562 -16.894531 19.453125 -16.722656 19.453125 -16.671875 C 19.160156 -16.609375 18.835938 -16.503906 18.484375 -16.359375 C 18.140625 -16.210938 17.910156 -16.257812 17.796875 -16.5 C 17.566406 -16.257812 17.453125 -16.226562 17.453125 -16.40625 C 17.273438 -16.40625 16.910156 -16.359375 16.359375 -16.265625 C 15.816406 -16.179688 15.3125 -16.113281 14.84375 -16.0625 L 12.0625 -15.796875 C 11.832031 -15.742188 11.472656 -15.726562 10.984375 -15.75 C 10.492188 -15.78125 10.1875 -15.769531 10.0625 -15.71875 L 9.890625 -15.625 C 9.835938 -15.445312 9.722656 -15.332031 9.546875 -15.28125 L 9.28125 -13.984375 L 8.859375 -12.328125 L 9.890625 -12.421875 L 10.328125 -11.984375 L 10.671875 -12.0625 C 10.734375 -12.0625 10.789062 -12.046875 10.84375 -12.015625 C 10.90625 -11.992188 10.96875 -12.007812 11.03125 -12.0625 C 11.144531 -12.0625 11.210938 -12.101562 11.234375 -12.1875 C 11.265625 -12.28125 11.335938 -12.269531 11.453125 -12.15625 L 11.890625 -11.890625 L 12.421875 -11.890625 C 12.535156 -11.660156 12.675781 -11.441406 12.84375 -11.234375 C 13.019531 -11.035156 13.164062 -10.789062 13.28125 -10.5 C 13.34375 -10.445312 13.429688 -10.375 13.546875 -10.28125 C 13.660156 -10.195312 13.6875 -10.125 13.625 -10.0625 C 13.738281 -9.71875 13.941406 -9.5625 14.234375 -9.59375 C 14.523438 -9.625 14.703125 -9.519531 14.765625 -9.28125 C 14.703125 -9.113281 14.785156 -8.78125 15.015625 -8.28125 C 15.242188 -7.789062 15.519531 -7.328125 15.84375 -6.890625 C 16.164062 -6.460938 16.351562 -6.191406 16.40625 -6.078125 C 16.351562 -6.015625 16.367188 -5.878906 16.453125 -5.671875 C 16.535156 -5.472656 16.609375 -5.257812 16.671875 -5.03125 C 16.554688 -4.914062 16.554688 -4.65625 16.671875 -4.25 C 16.785156 -3.84375 16.867188 -3.582031 16.921875 -3.46875 C 17.046875 -3.351562 17.132812 -3.296875 17.1875 -3.296875 C 17.007812 -3.066406 16.894531 -2.953125 16.84375 -2.953125 L 16.921875 -2.859375 C 16.984375 -2.804688 17 -2.691406 16.96875 -2.515625 C 16.9375 -2.335938 16.921875 -2.164062 16.921875 -2 L 16.84375 -1.65625 C 17.070312 -1.476562 17.15625 -1.226562 17.09375 -0.90625 C 17.039062 -0.59375 17.046875 -0.289062 17.109375 0 L 17.109375 0.171875 L 17.359375 5.984375 C 17.472656 6.335938 17.457031 6.671875 17.3125 6.984375 C 17.175781 7.304688 17.132812 7.523438 17.1875 7.640625 L 16.75 9.546875 L 16.5 9.28125 L 16.671875 10.0625 L 15.96875 12.234375 C 15.96875 12.640625 15.941406 12.875 15.890625 12.9375 C 15.660156 13.457031 15.472656 13.976562 15.328125 14.5 C 15.179688 15.019531 14.992188 15.539062 14.765625 16.0625 C 14.585938 16.46875 14.394531 16.875 14.1875 17.28125 C 13.988281 17.6875 13.71875 18.117188 13.375 18.578125 C 13.257812 18.921875 13.070312 19.25 12.8125 19.5625 C 12.550781 19.882812 12.300781 20.222656 12.0625 20.578125 C 12.0625 20.628906 12.046875 20.65625 12.015625 20.65625 C 11.992188 20.65625 11.984375 20.6875 11.984375 20.75 C 11.691406 21.15625 11.414062 21.546875 11.15625 21.921875 C 10.894531 22.296875 10.5625 22.628906 10.15625 22.921875 C 9.925781 23.085938 9.648438 23.269531 9.328125 23.46875 C 9.015625 23.675781 8.65625 23.78125 8.25 23.78125 C 7.957031 23.78125 7.664062 23.820312 7.375 23.90625 C 7.082031 24 6.765625 24.078125 6.421875 24.140625 C 5.898438 24.191406 5.304688 24.113281 4.640625 23.90625 C 3.972656 23.707031 3.5 23.378906 3.21875 22.921875 C 2.8125 22.453125 2.460938 21.972656 2.171875 21.484375 C 1.878906 20.992188 1.675781 20.457031 1.5625 19.875 C 1.269531 19.1875 1.066406 18.4375 0.953125 17.625 C 0.835938 17.394531 0.75 17.175781 0.6875 16.96875 C 0.632812 16.769531 0.753906 16.554688 1.046875 16.328125 C 0.753906 16.035156 0.632812 15.6875 0.6875 15.28125 C 0.75 14.875 0.664062 14.523438 0.4375 14.234375 C 0.488281 14.003906 0.539062 13.742188 0.59375 13.453125 C 0.65625 13.160156 0.804688 12.898438 1.046875 12.671875 L 0.953125 12.59375 C 0.722656 12.1875 0.648438 11.734375 0.734375 11.234375 C 0.828125 10.742188 0.898438 10.238281 0.953125 9.71875 C 0.953125 9.550781 0.921875 9.378906 0.859375 9.203125 C 0.804688 9.023438 0.835938 8.820312 0.953125 8.59375 C 1.128906 8.300781 1.203125 8.007812 1.171875 7.71875 C 1.140625 7.4375 1.15625 7.175781 1.21875 6.9375 C 1.21875 6.820312 1.242188 6.75 1.296875 6.71875 C 1.359375 6.695312 1.390625 6.6875 1.390625 6.6875 C 1.503906 6.164062 1.546875 5.644531 1.515625 5.125 C 1.484375 4.601562 1.46875 4.109375 1.46875 3.640625 C 1.59375 3.003906 1.722656 2.394531 1.859375 1.8125 C 2.003906 1.238281 2.109375 0.601562 2.171875 -0.09375 C 2.460938 -0.550781 2.617188 -1.082031 2.640625 -1.6875 C 2.671875 -2.300781 2.800781 -2.8125 3.03125 -3.21875 C 2.976562 -3.445312 3.023438 -3.632812 3.171875 -3.78125 C 3.316406 -3.925781 3.414062 -4.113281 3.46875 -4.34375 C 3.414062 -4.457031 3.390625 -4.613281 3.390625 -4.8125 C 3.390625 -5.019531 3.390625 -5.207031 3.390625 -5.375 C 3.390625 -5.726562 3.472656 -6.078125 3.640625 -6.421875 C 3.753906 -6.484375 3.867188 -6.757812 3.984375 -7.25 C 4.109375 -7.738281 4.226562 -8.226562 4.34375 -8.71875 C 4.457031 -9.21875 4.484375 -9.523438 4.421875 -9.640625 C 4.535156 -9.804688 4.722656 -10.28125 4.984375 -11.0625 C 5.242188 -11.84375 5.519531 -12.640625 5.8125 -13.453125 C 6.101562 -14.265625 6.25 -14.726562 6.25 -14.84375 L 6.421875 -15.28125 C 6.367188 -15.28125 6.328125 -15.265625 6.296875 -15.234375 C 6.265625 -15.203125 6.21875 -15.1875 6.15625 -15.1875 L 5.8125 -15.28125 L 5.203125 -15.1875 L 3.734375 -15.1875 L 3.21875 -15.109375 L 2.953125 -15.1875 C 2.546875 -15.425781 2.140625 -15.570312 1.734375 -15.625 C 1.441406 -15.507812 1.296875 -15.882812 1.296875 -16.75 C 1.242188 -16.8125 1.1875 -16.84375 1.125 -16.84375 C 1.125 -16.78125 1.109375 -16.789062 1.078125 -16.875 C 1.054688 -16.96875 1.015625 -17.128906 0.953125 -17.359375 C 0.898438 -17.472656 0.957031 -17.675781 1.125 -17.96875 C 2.28125 -17.914062 3.265625 -17.914062 4.078125 -17.96875 L 4.515625 -17.96875 L 5.03125 -18.140625 C 5.207031 -18.140625 5.410156 -18.125 5.640625 -18.09375 C 5.867188 -18.070312 6.015625 -18.085938 6.078125 -18.140625 L 6.59375 -18.234375 L 7.46875 -18.234375 L 8.5 -21.09375 C 8.851562 -21.957031 9.21875 -22.867188 9.59375 -23.828125 C 9.96875 -24.785156 10.382812 -25.726562 10.84375 -26.65625 C 11.132812 -27.226562 11.367188 -27.773438 11.546875 -28.296875 C 11.722656 -28.816406 11.953125 -29.3125 12.234375 -29.78125 C 12.585938 -30.707031 13.007812 -31.628906 13.5 -32.546875 C 13.988281 -33.472656 14.4375 -34.316406 14.84375 -35.078125 L 15.015625 -35.5 C 15.015625 -35.5 15.1875 -35.789062 15.53125 -36.375 C 15.882812 -36.957031 16.273438 -37.578125 16.703125 -38.234375 C 17.140625 -38.898438 17.445312 -39.378906 17.625 -39.671875 L 19.09375 -41.578125 C 19.5625 -42.046875 20.15625 -42.132812 20.875 -41.84375 C 21.601562 -41.550781 22.023438 -41.347656 22.140625 -41.234375 C 22.191406 -41.234375 22.332031 -41.085938 22.5625 -40.796875 C 22.800781 -40.515625 22.945312 -40.285156 23 -40.109375 C 23.113281 -39.816406 22.953125 -39.613281 22.515625 -39.5 C 22.085938 -39.382812 21.644531 -39.035156 21.1875 -38.453125 C 20.894531 -38.046875 20.675781 -37.726562 20.53125 -37.5 C 20.382812 -37.269531 20.164062 -37.007812 19.875 -36.71875 C 19.59375 -36.425781 19.363281 -36.164062 19.1875 -35.9375 C 19.007812 -35.707031 18.804688 -35.363281 18.578125 -34.90625 C 18.171875 -34.257812 17.820312 -33.75 17.53125 -33.375 C 17.25 -33 16.960938 -32.523438 16.671875 -31.953125 Z M 9.375 -11.546875 L 8.6875 -11.984375 L 8.25 -10.421875 C 8.25 -9.953125 8.070312 -9.375 7.71875 -8.6875 C 7.664062 -8.445312 7.59375 -8.164062 7.5 -7.84375 C 7.414062 -7.53125 7.316406 -7.226562 7.203125 -6.9375 C 6.972656 -6.363281 6.8125 -5.769531 6.71875 -5.15625 C 6.632812 -4.550781 6.332031 -4.101562 5.8125 -3.8125 C 5.875 -3.582031 5.988281 -3.394531 6.15625 -3.25 C 6.332031 -3.101562 6.304688 -2.890625 6.078125 -2.609375 L 4.34375 5.46875 C 4.34375 5.53125 4.253906 5.644531 4.078125 5.8125 C 4.140625 5.875 4.171875 5.988281 4.171875 6.15625 C 4.171875 6.332031 4.140625 6.445312 4.078125 6.5 C 4.023438 6.5625 3.9375 6.648438 3.8125 6.765625 C 3.9375 6.828125 4.007812 6.882812 4.03125 6.9375 C 4.0625 7 4.109375 7.085938 4.171875 7.203125 L 4.171875 7.71875 C 4.222656 7.78125 4.25 7.84375 4.25 7.90625 C 4.195312 8.132812 4.050781 8.722656 3.8125 9.671875 C 3.582031 10.628906 3.5 11.34375 3.5625 11.8125 L 3.640625 12.421875 C 3.640625 12.585938 3.609375 12.757812 3.546875 12.9375 C 3.492188 13.113281 3.410156 13.34375 3.296875 13.625 C 3.359375 13.6875 3.398438 14.003906 3.421875 14.578125 C 3.453125 15.160156 3.410156 15.539062 3.296875 15.71875 C 3.296875 15.71875 3.351562 15.890625 3.46875 16.234375 C 3.582031 16.578125 3.523438 16.867188 3.296875 17.109375 C 3.242188 17.160156 3.257812 17.242188 3.34375 17.359375 C 3.425781 17.472656 3.46875 17.5625 3.46875 17.625 L 3.640625 18.921875 C 3.640625 19.671875 3.816406 20.304688 4.171875 20.828125 C 4.285156 21.003906 4.367188 21.207031 4.421875 21.4375 C 4.484375 21.675781 4.660156 21.765625 4.953125 21.703125 L 5.984375 21.4375 C 6.335938 21.320312 6.65625 21.207031 6.9375 21.09375 C 7.226562 20.976562 7.488281 20.71875 7.71875 20.3125 C 8.363281 19.738281 8.898438 19.144531 9.328125 18.53125 C 9.765625 17.925781 10.1875 17.304688 10.59375 16.671875 C 11.113281 15.628906 11.515625 14.628906 11.796875 13.671875 C 12.085938 12.710938 12.351562 11.742188 12.59375 10.765625 C 12.757812 10.128906 12.914062 9.460938 13.0625 8.765625 C 13.207031 8.066406 13.335938 7.429688 13.453125 6.859375 C 13.515625 6.335938 13.554688 5.828125 13.578125 5.328125 C 13.609375 4.835938 13.597656 4.332031 13.546875 3.8125 C 13.835938 2.539062 13.894531 1.238281 13.71875 -0.09375 L 13.453125 -3.390625 C 13.160156 -4.773438 12.851562 -5.882812 12.53125 -6.71875 C 12.21875 -7.5625 11.742188 -8.476562 11.109375 -9.46875 Z M 9.375 -11.546875"/></g></g></g><g fill-opacity="1" fill="#000000"><g transform="translate(310.282413, 190.486303)"><g><path d="M 22.828125 -8.5 L 21.53125 -7.375 C 21.46875 -7.320312 21.40625 -7.222656 21.34375 -7.078125 C 21.289062 -6.929688 21.148438 -6.800781 20.921875 -6.6875 L 20.65625 -6.34375 C 20.25 -6.164062 20.164062 -5.960938 20.40625 -5.734375 C 20.226562 -5.617188 20.066406 -5.488281 19.921875 -5.34375 C 19.773438 -5.195312 19.675781 -4.976562 19.625 -4.6875 L 19.625 -4.59375 C 19.5625 -4.476562 19.472656 -4.347656 19.359375 -4.203125 C 19.242188 -4.066406 19.15625 -3.96875 19.09375 -3.90625 C 18.8125 -3.613281 18.4375 -3.296875 17.96875 -2.953125 L 16.328125 -1.65625 C 15.972656 -1.476562 15.648438 -1.300781 15.359375 -1.125 C 15.078125 -0.957031 14.789062 -0.753906 14.5 -0.515625 C 14.09375 -0.285156 13.710938 -0.0390625 13.359375 0.21875 C 13.015625 0.476562 12.613281 0.695312 12.15625 0.875 C 11.925781 0.988281 11.648438 1.054688 11.328125 1.078125 C 11.003906 1.109375 10.703125 1.15625 10.421875 1.21875 C 10.179688 1.21875 9.921875 1.300781 9.640625 1.46875 C 9.460938 1.53125 9.257812 1.585938 9.03125 1.640625 C 8.800781 1.703125 8.566406 1.765625 8.328125 1.828125 C 7.984375 1.878906 7.648438 1.945312 7.328125 2.03125 C 7.015625 2.125 6.6875 2.140625 6.34375 2.078125 C 5.351562 1.960938 4.484375 1.789062 3.734375 1.5625 C 3.328125 1.445312 3.007812 1.332031 2.78125 1.21875 C 2.550781 1.101562 2.203125 0.867188 1.734375 0.515625 C 1.679688 0.398438 1.609375 0.328125 1.515625 0.296875 C 1.429688 0.273438 1.359375 0.234375 1.296875 0.171875 C 1.015625 -0.0546875 0.769531 -0.300781 0.5625 -0.5625 C 0.363281 -0.820312 0.117188 -1.15625 -0.171875 -1.5625 C -0.234375 -1.675781 -0.273438 -1.773438 -0.296875 -1.859375 C -0.328125 -1.953125 -0.398438 -2.203125 -0.515625 -2.609375 C -0.753906 -3.128906 -0.875 -3.5625 -0.875 -3.90625 C -0.875 -4.25 -0.875 -4.566406 -0.875 -4.859375 C -0.75 -6.597656 -0.285156 -8.273438 0.515625 -9.890625 C 0.691406 -10.179688 0.863281 -10.457031 1.03125 -10.71875 C 1.207031 -10.976562 1.414062 -11.222656 1.65625 -11.453125 C 2.050781 -11.921875 2.4375 -12.382812 2.8125 -12.84375 C 3.195312 -13.3125 3.59375 -13.75 4 -14.15625 C 4.863281 -15.019531 5.816406 -15.484375 6.859375 -15.546875 C 6.972656 -15.546875 7.101562 -15.554688 7.25 -15.578125 C 7.394531 -15.609375 7.550781 -15.65625 7.71875 -15.71875 C 8.1875 -15.882812 8.609375 -15.863281 8.984375 -15.65625 C 9.359375 -15.457031 9.691406 -15.273438 9.984375 -15.109375 C 10.390625 -14.929688 10.765625 -14.726562 11.109375 -14.5 C 11.460938 -14.269531 11.78125 -14.007812 12.0625 -13.71875 C 12.414062 -13.488281 12.675781 -13.082031 12.84375 -12.5 C 13.019531 -11.925781 13.050781 -11.460938 12.9375 -11.109375 C 12.757812 -10.648438 12.523438 -10.273438 12.234375 -9.984375 C 11.835938 -9.578125 11.445312 -9.171875 11.0625 -8.765625 C 10.6875 -8.359375 10.296875 -7.953125 9.890625 -7.546875 C 9.773438 -7.429688 9.613281 -7.332031 9.40625 -7.25 C 9.207031 -7.164062 9.082031 -7.0625 9.03125 -6.9375 C 8.96875 -6.65625 8.820312 -6.46875 8.59375 -6.375 C 8.363281 -6.289062 8.160156 -6.191406 7.984375 -6.078125 L 6.765625 -5.203125 C 6.710938 -5.148438 6.6875 -5.078125 6.6875 -4.984375 C 6.6875 -4.898438 6.65625 -4.832031 6.59375 -4.78125 C 6.300781 -4.601562 5.992188 -4.441406 5.671875 -4.296875 C 5.359375 -4.148438 5.0625 -3.988281 4.78125 -3.8125 C 4.65625 -3.757812 4.550781 -3.6875 4.46875 -3.59375 C 4.382812 -3.507812 4.285156 -3.410156 4.171875 -3.296875 C 3.816406 -3.117188 3.535156 -2.988281 3.328125 -2.90625 C 3.128906 -2.820312 2.890625 -2.691406 2.609375 -2.515625 C 2.773438 -1.992188 2.929688 -1.644531 3.078125 -1.46875 C 3.222656 -1.300781 3.46875 -1.160156 3.8125 -1.046875 C 4.394531 -1.097656 4.960938 -1.125 5.515625 -1.125 C 6.066406 -1.125 6.628906 -1.15625 7.203125 -1.21875 C 7.609375 -1.269531 8 -1.367188 8.375 -1.515625 C 8.75 -1.660156 9.140625 -1.789062 9.546875 -1.90625 C 9.835938 -2.019531 10.15625 -2.164062 10.5 -2.34375 C 10.851562 -2.519531 11.203125 -2.664062 11.546875 -2.78125 C 11.773438 -2.894531 11.988281 -2.960938 12.1875 -2.984375 C 12.394531 -3.015625 12.613281 -3.09375 12.84375 -3.21875 L 15.71875 -4.859375 L 15.96875 -5.03125 C 16.375 -5.320312 16.925781 -5.671875 17.625 -6.078125 C 18.320312 -6.484375 18.867188 -6.800781 19.265625 -7.03125 C 19.441406 -7.144531 19.644531 -7.257812 19.875 -7.375 C 20.113281 -7.488281 20.257812 -7.578125 20.3125 -7.640625 L 23.265625 -9.8125 L 23.4375 -9.203125 C 23.4375 -9.203125 23.453125 -9.203125 23.484375 -9.203125 C 23.515625 -9.203125 23.53125 -9.171875 23.53125 -9.109375 C 23.414062 -9.054688 23.296875 -8.972656 23.171875 -8.859375 C 23.054688 -8.742188 22.941406 -8.625 22.828125 -8.5 Z M 3.125 -7.8125 C 3.007812 -7.582031 2.90625 -7.304688 2.8125 -6.984375 C 2.726562 -6.671875 2.628906 -6.335938 2.515625 -5.984375 C 2.859375 -6.222656 3.144531 -6.410156 3.375 -6.546875 C 3.613281 -6.691406 3.820312 -6.820312 4 -6.9375 L 6.34375 -8.859375 L 8.6875 -10.9375 C 8.96875 -11.164062 9.195312 -11.410156 9.375 -11.671875 C 9.550781 -11.929688 9.722656 -12.207031 9.890625 -12.5 C 10.003906 -12.726562 9.988281 -12.988281 9.84375 -13.28125 C 9.707031 -13.570312 9.550781 -13.660156 9.375 -13.546875 C 8.96875 -13.367188 8.578125 -13.25 8.203125 -13.1875 C 7.828125 -13.132812 7.46875 -12.960938 7.125 -12.671875 C 6.71875 -12.378906 6.320312 -12.101562 5.9375 -11.84375 C 5.5625 -11.582031 5.234375 -11.25 4.953125 -10.84375 C 4.316406 -9.976562 3.707031 -8.96875 3.125 -7.8125 Z M 3.125 -7.8125"/></g></g></g><g clip-path="url(#798ab0e217)"><path fill-rule="nonzero" fill-opacity="1" d="M 221.917969 226.355469 L 221.925781 226.355469 C 222.144531 226.347656 222.316406 226.191406 222.332031 225.976562 L 223.59375 209.976562 L 225.089844 220.027344 C 225.117188 220.226562 225.296875 220.375 225.5 220.375 L 228.699219 220.375 L 229.339844 221.441406 C 229.40625 221.558594 229.535156 221.625 229.667969 221.617188 C 229.804688 221.609375 229.921875 221.527344 229.980469 221.40625 L 230.976562 219.222656 L 231.910156 222.175781 C 231.960938 222.335938 232.105469 222.449219 232.28125 222.460938 C 232.453125 222.472656 232.613281 222.378906 232.683594 222.222656 L 233.464844 220.527344 L 241.554688 220.527344 L 241.554688 219.988281 L 233.378906 219.988281 C 233.21875 219.988281 233.070312 220.082031 233.003906 220.226562 L 232.328125 221.695312 L 231.394531 218.738281 C 231.339844 218.574219 231.195312 218.460938 231.023438 218.453125 C 230.847656 218.441406 230.691406 218.535156 230.617188 218.691406 L 229.628906 220.867188 L 229.128906 220.039062 C 229.054688 219.914062 228.917969 219.839844 228.773438 219.839844 L 225.613281 219.839844 L 223.964844 208.769531 C 223.933594 208.558594 223.757812 208.414062 223.539062 208.417969 C 223.328125 208.425781 223.160156 208.585938 223.140625 208.796875 L 221.890625 224.644531 L 220.914062 216.617188 C 220.890625 216.414062 220.722656 216.261719 220.519531 216.253906 C 220.3125 216.246094 220.136719 216.386719 220.097656 216.582031 L 219.210938 220.910156 L 217.886719 218.4375 C 217.8125 218.300781 217.667969 218.214844 217.511719 218.21875 C 217.355469 218.222656 217.214844 218.3125 217.144531 218.449219 L 215.804688 221.21875 L 215.386719 219.90625 C 215.332031 219.734375 215.171875 219.617188 214.988281 219.617188 L 145.554688 219.617188 L 145.554688 220.15625 L 214.894531 220.15625 L 215.382812 221.6875 C 215.433594 221.851562 215.578125 221.960938 215.75 221.972656 C 215.917969 221.984375 216.078125 221.894531 216.152344 221.742188 L 217.527344 218.914062 L 218.902344 221.476562 C 218.984375 221.632812 219.152344 221.714844 219.328125 221.691406 C 219.503906 221.664062 219.640625 221.539062 219.675781 221.367188 L 220.46875 217.472656 L 221.507812 225.992188 C 221.53125 226.203125 221.703125 226.355469 221.917969 226.355469" fill="#ff1144"/></g><g fill-opacity="1" fill="#ed1f2f"><g transform="translate(117.359483, 214.68764)"><g><path d="M 2.90625 -0.828125 C 3.039062 -0.828125 3.140625 -0.84375 3.203125 -0.875 L 3.203125 -0.859375 L 3.171875 0 L 0.59375 0 L 0.59375 -4.609375 C 0.65625 -4.609375 0.722656 -4.601562 0.796875 -4.59375 L 1.046875 -4.59375 C 1.203125 -4.59375 1.375 -4.59375 1.5625 -4.59375 C 2.09375 -4.59375 2.613281 -4.597656 3.125 -4.609375 C 3.101562 -4.410156 3.09375 -4.140625 3.09375 -3.796875 C 3.09375 -3.765625 3.09375 -3.738281 3.09375 -3.71875 L 3.09375 -3.703125 C 2.96875 -3.742188 2.796875 -3.765625 2.578125 -3.765625 L 1.5 -3.765625 L 1.5 -2.890625 L 2.3125 -2.890625 C 2.5625 -2.890625 2.710938 -2.894531 2.765625 -2.90625 L 2.78125 -2.046875 C 2.664062 -2.054688 2.519531 -2.0625 2.34375 -2.0625 L 1.5 -2.0625 L 1.5 -0.828125 Z M 2.90625 -0.828125"/></g></g></g><g fill-opacity="1" fill="#ed1f2f"><g transform="translate(123.300181, 214.68764)"><g><path d="M 1.53125 0.015625 C 1.414062 0.00390625 1.203125 0 0.890625 0 L 0.609375 0 L 0.609375 -4.59375 C 0.753906 -4.59375 0.914062 -4.59375 1.09375 -4.59375 C 1.269531 -4.59375 1.394531 -4.597656 1.46875 -4.609375 L 2.625 -2.640625 L 3.75 -4.609375 C 3.820312 -4.597656 3.957031 -4.59375 4.15625 -4.59375 C 4.363281 -4.59375 4.546875 -4.59375 4.703125 -4.59375 L 4.703125 0 L 4.421875 0 C 4.109375 0 3.894531 0.00390625 3.78125 0.015625 L 3.78125 -3.0625 L 2.65625 -1.046875 L 1.53125 -2.90625 Z M 1.53125 0.015625"/></g></g></g><g fill-opacity="1" fill="#ed1f2f"><g transform="translate(131.008238, 214.68764)"><g><path d="M 0.53125 -4.609375 C 0.84375 -4.648438 1.171875 -4.671875 1.515625 -4.671875 C 2.140625 -4.671875 2.613281 -4.523438 2.9375 -4.234375 C 3.257812 -3.941406 3.421875 -3.503906 3.421875 -2.921875 C 3.421875 -2.398438 3.242188 -1.984375 2.890625 -1.671875 C 2.554688 -1.390625 2.128906 -1.25 1.609375 -1.25 C 1.546875 -1.25 1.476562 -1.253906 1.40625 -1.265625 L 1.40625 0 L 0.53125 0 Z M 1.609375 -3.84375 C 1.546875 -3.84375 1.476562 -3.835938 1.40625 -3.828125 L 1.40625 -2.015625 C 1.476562 -2.003906 1.566406 -2 1.671875 -2 C 1.773438 -2 1.882812 -2.019531 2 -2.0625 C 2.113281 -2.113281 2.210938 -2.179688 2.296875 -2.265625 C 2.460938 -2.429688 2.546875 -2.648438 2.546875 -2.921875 C 2.546875 -3.535156 2.234375 -3.84375 1.609375 -3.84375 Z M 1.609375 -3.84375"/></g></g></g><g fill-opacity="1" fill="#ed1f2f"><g transform="translate(136.948937, 214.68764)"><g><path d="M 0.96875 -0.546875 C 0.757812 -0.742188 0.59375 -0.984375 0.46875 -1.265625 C 0.351562 -1.546875 0.296875 -1.851562 0.296875 -2.1875 C 0.296875 -2.519531 0.347656 -2.835938 0.453125 -3.140625 C 0.566406 -3.441406 0.726562 -3.703125 0.9375 -3.921875 C 1.15625 -4.148438 1.410156 -4.332031 1.703125 -4.46875 C 1.992188 -4.601562 2.328125 -4.671875 2.703125 -4.671875 C 3.335938 -4.671875 3.867188 -4.472656 4.296875 -4.078125 C 4.765625 -3.648438 5 -3.070312 5 -2.34375 C 5 -1.632812 4.757812 -1.050781 4.28125 -0.59375 C 3.988281 -0.300781 3.640625 -0.101562 3.234375 0 C 3.035156 0.0625 2.800781 0.09375 2.53125 0.09375 C 2.257812 0.09375 1.984375 0.0351562 1.703125 -0.078125 C 1.421875 -0.191406 1.175781 -0.347656 0.96875 -0.546875 Z M 1.25 -2.234375 C 1.25 -2.015625 1.285156 -1.816406 1.359375 -1.640625 C 1.429688 -1.460938 1.53125 -1.3125 1.65625 -1.1875 C 1.925781 -0.914062 2.269531 -0.78125 2.6875 -0.78125 C 3.09375 -0.78125 3.414062 -0.910156 3.65625 -1.171875 C 3.90625 -1.429688 4.03125 -1.796875 4.03125 -2.265625 C 4.03125 -2.703125 3.910156 -3.066406 3.671875 -3.359375 C 3.421875 -3.671875 3.070312 -3.828125 2.625 -3.828125 C 2.195312 -3.828125 1.859375 -3.671875 1.609375 -3.359375 C 1.367188 -3.054688 1.25 -2.679688 1.25 -2.234375 Z M 1.25 -2.234375"/></g></g></g><g fill-opacity="1" fill="#ed1f2f"><g transform="translate(144.643213, 214.68764)"><g><path d="M 2.234375 0.015625 C 2.160156 0.00390625 2.046875 0 1.890625 0 L 1.484375 0 C 1.398438 0 1.335938 0 1.296875 0 L 1.28125 0 C 1.289062 -0.0195312 1.296875 -0.0390625 1.296875 -0.0625 C 1.296875 -0.0820312 1.296875 -0.101562 1.296875 -0.125 C 1.296875 -0.144531 1.285156 -0.179688 1.265625 -0.234375 C 1.253906 -0.296875 1.234375 -0.382812 1.203125 -0.5 L 0.03125 -4.59375 C 0.175781 -4.59375 0.351562 -4.59375 0.5625 -4.59375 C 0.769531 -4.59375 0.90625 -4.597656 0.96875 -4.609375 L 1.78125 -1.5 L 2.578125 -4.59375 C 2.609375 -4.59375 2.640625 -4.59375 2.671875 -4.59375 L 2.75 -4.59375 C 2.820312 -4.59375 2.914062 -4.59375 3.03125 -4.59375 C 3.144531 -4.59375 3.265625 -4.597656 3.390625 -4.609375 L 4.1875 -1.5 L 4.890625 -4.59375 C 5.023438 -4.59375 5.203125 -4.59375 5.421875 -4.59375 C 5.648438 -4.59375 5.785156 -4.597656 5.828125 -4.609375 L 4.84375 -0.96875 C 4.71875 -0.550781 4.648438 -0.300781 4.640625 -0.21875 C 4.628906 -0.144531 4.625 -0.09375 4.625 -0.0625 C 4.625 -0.0390625 4.628906 -0.0195312 4.640625 0 L 4.640625 0.015625 C 4.566406 0.00390625 4.453125 0 4.296875 0 C 4.148438 0 4.019531 0 3.90625 0 C 3.800781 0 3.722656 0 3.671875 0 C 3.671875 -0.0195312 3.671875 -0.0390625 3.671875 -0.0625 C 3.671875 -0.0820312 3.671875 -0.0976562 3.671875 -0.109375 C 3.671875 -0.128906 3.664062 -0.171875 3.65625 -0.234375 C 3.644531 -0.296875 3.628906 -0.382812 3.609375 -0.5 L 3.515625 -0.96875 L 2.953125 -3.109375 L 2.40625 -0.96875 C 2.300781 -0.53125 2.242188 -0.28125 2.234375 -0.21875 C 2.222656 -0.09375 2.222656 -0.0195312 2.234375 0 Z M 2.234375 0.015625"/></g></g></g><g fill-opacity="1" fill="#ed1f2f"><g transform="translate(152.940389, 214.68764)"><g><path d="M 2.90625 -0.828125 C 3.039062 -0.828125 3.140625 -0.84375 3.203125 -0.875 L 3.203125 -0.859375 L 3.171875 0 L 0.59375 0 L 0.59375 -4.609375 C 0.65625 -4.609375 0.722656 -4.601562 0.796875 -4.59375 L 1.046875 -4.59375 C 1.203125 -4.59375 1.375 -4.59375 1.5625 -4.59375 C 2.09375 -4.59375 2.613281 -4.597656 3.125 -4.609375 C 3.101562 -4.410156 3.09375 -4.140625 3.09375 -3.796875 C 3.09375 -3.765625 3.09375 -3.738281 3.09375 -3.71875 L 3.09375 -3.703125 C 2.96875 -3.742188 2.796875 -3.765625 2.578125 -3.765625 L 1.5 -3.765625 L 1.5 -2.890625 L 2.3125 -2.890625 C 2.5625 -2.890625 2.710938 -2.894531 2.765625 -2.90625 L 2.78125 -2.046875 C 2.664062 -2.054688 2.519531 -2.0625 2.34375 -2.0625 L 1.5 -2.0625 L 1.5 -0.828125 Z M 2.90625 -0.828125"/></g></g></g><g fill-opacity="1" fill="#ed1f2f"><g transform="translate(158.881089, 214.68764)"><g><path d="M 2.078125 -1.78125 C 2.003906 -1.78125 1.925781 -1.78125 1.84375 -1.78125 C 1.769531 -1.78125 1.65625 -1.785156 1.5 -1.796875 L 1.5 0 L 0.59375 0 L 0.59375 -4.609375 C 0.914062 -4.648438 1.3125 -4.671875 1.78125 -4.671875 C 2.414062 -4.671875 2.890625 -4.550781 3.203125 -4.3125 C 3.515625 -4.082031 3.671875 -3.722656 3.671875 -3.234375 C 3.671875 -2.847656 3.53125 -2.519531 3.25 -2.25 C 3.15625 -2.164062 3.046875 -2.085938 2.921875 -2.015625 L 3.625 -0.53125 C 3.757812 -0.226562 3.863281 -0.0507812 3.9375 0 L 3.921875 0.03125 C 3.703125 -0.0078125 3.351562 -0.0078125 2.875 0.03125 Z M 1.84375 -3.859375 C 1.726562 -3.859375 1.613281 -3.851562 1.5 -3.84375 L 1.5 -2.53125 C 1.613281 -2.507812 1.742188 -2.5 1.890625 -2.5 C 2.046875 -2.5 2.175781 -2.507812 2.28125 -2.53125 C 2.382812 -2.5625 2.476562 -2.601562 2.5625 -2.65625 C 2.71875 -2.78125 2.796875 -2.960938 2.796875 -3.203125 C 2.796875 -3.453125 2.710938 -3.625 2.546875 -3.71875 C 2.390625 -3.8125 2.15625 -3.859375 1.84375 -3.859375 Z M 1.84375 -3.859375"/></g></g></g><g fill-opacity="1" fill="#ed1f2f"><g transform="translate(165.397128, 214.68764)"><g><path d="M 0.703125 -4.59375 C 0.929688 -4.59375 1.070312 -4.59375 1.125 -4.59375 L 1.359375 -4.59375 C 1.484375 -4.59375 1.582031 -4.597656 1.65625 -4.609375 L 1.65625 0 L 0.703125 0 Z M 0.703125 -4.59375"/></g></g></g><g fill-opacity="1" fill="#ed1f2f"><g transform="translate(170.159588, 214.68764)"><g><path d="M 0.625 0 C 0.632812 -0.0820312 0.640625 -0.164062 0.640625 -0.25 L 0.640625 -4.59375 L 1.328125 -4.59375 L 3.15625 -1.703125 L 3.15625 -4.359375 C 3.15625 -4.484375 3.144531 -4.5625 3.125 -4.59375 L 4.0625 -4.59375 C 4.050781 -4.5 4.046875 -4.394531 4.046875 -4.28125 L 4.046875 0 L 3.328125 0 L 1.53125 -2.765625 L 1.53125 0 Z M 0.625 0"/></g></g></g><g fill-opacity="1" fill="#ed1f2f"><g transform="translate(177.247521, 214.68764)"><g><path d="M 4.375 -2.765625 C 4.332031 -2.691406 4.3125 -2.503906 4.3125 -2.203125 L 4.3125 -1.140625 C 4.3125 -0.804688 4.140625 -0.523438 3.796875 -0.296875 C 3.453125 -0.0351562 3.03125 0.09375 2.53125 0.09375 C 1.832031 0.09375 1.273438 -0.128906 0.859375 -0.578125 C 0.453125 -0.992188 0.25 -1.523438 0.25 -2.171875 C 0.25 -2.859375 0.453125 -3.429688 0.859375 -3.890625 C 1.316406 -4.410156 1.945312 -4.671875 2.75 -4.671875 C 3.289062 -4.671875 3.71875 -4.566406 4.03125 -4.359375 L 3.96875 -3.34375 L 3.9375 -3.34375 C 3.863281 -3.476562 3.707031 -3.59375 3.46875 -3.6875 C 3.238281 -3.769531 3 -3.8125 2.75 -3.8125 C 2.507812 -3.8125 2.296875 -3.769531 2.109375 -3.6875 C 1.921875 -3.613281 1.765625 -3.503906 1.640625 -3.359375 C 1.367188 -3.054688 1.234375 -2.664062 1.234375 -2.1875 C 1.234375 -1.757812 1.351562 -1.414062 1.59375 -1.15625 C 1.832031 -0.90625 2.140625 -0.78125 2.515625 -0.78125 C 2.929688 -0.78125 3.210938 -0.882812 3.359375 -1.09375 C 3.398438 -1.164062 3.421875 -1.242188 3.421875 -1.328125 L 3.421875 -1.90625 L 2.984375 -1.90625 C 2.742188 -1.90625 2.613281 -1.882812 2.59375 -1.84375 L 2.578125 -1.84375 L 2.546875 -2.75 C 2.617188 -2.726562 2.878906 -2.71875 3.328125 -2.71875 L 3.734375 -2.71875 C 3.992188 -2.71875 4.203125 -2.734375 4.359375 -2.765625 Z M 4.375 -2.765625"/></g></g></g><g fill-opacity="1" fill="#ed1f2f"><g transform="translate(184.352679, 214.68764)"><g/></g></g><g fill-opacity="1" fill="#ed1f2f"><g transform="translate(189.097914, 214.68764)"><g><path d="M 2.65625 -4.671875 C 3.082031 -4.671875 3.445312 -4.597656 3.75 -4.453125 L 3.75 -3.390625 L 3.734375 -3.390625 C 3.609375 -3.585938 3.335938 -3.71875 2.921875 -3.78125 C 2.804688 -3.800781 2.65625 -3.8125 2.46875 -3.8125 C 2.28125 -3.8125 2.09375 -3.773438 1.90625 -3.703125 C 1.726562 -3.628906 1.582031 -3.53125 1.46875 -3.40625 C 1.25 -3.15625 1.140625 -2.796875 1.140625 -2.328125 C 1.140625 -1.796875 1.28125 -1.394531 1.5625 -1.125 C 1.800781 -0.90625 2.113281 -0.796875 2.5 -0.796875 C 2.9375 -0.796875 3.289062 -0.890625 3.5625 -1.078125 C 3.65625 -1.140625 3.738281 -1.222656 3.8125 -1.328125 L 3.828125 -1.3125 L 3.828125 -0.359375 C 3.472656 -0.0546875 3 0.09375 2.40625 0.09375 C 1.695312 0.09375 1.144531 -0.128906 0.75 -0.578125 C 0.363281 -1.003906 0.171875 -1.566406 0.171875 -2.265625 C 0.171875 -3.015625 0.382812 -3.601562 0.8125 -4.03125 C 1.226562 -4.457031 1.84375 -4.671875 2.65625 -4.671875 Z M 2.65625 -4.671875"/></g></g></g><g fill-opacity="1" fill="#ed1f2f"><g transform="translate(195.596727, 214.68764)"><g><path d="M 0.921875 0.03125 C 0.722656 0.0078125 0.492188 0 0.234375 0 L -0.03125 0 L 1.46875 -4.203125 C 1.53125 -4.390625 1.5625 -4.5 1.5625 -4.53125 C 1.5625 -4.5625 1.5625 -4.582031 1.5625 -4.59375 C 1.707031 -4.59375 1.863281 -4.59375 2.03125 -4.59375 C 2.175781 -4.59375 2.34375 -4.59375 2.53125 -4.59375 C 2.53125 -4.582031 2.53125 -4.566406 2.53125 -4.546875 C 2.53125 -4.503906 2.566406 -4.390625 2.640625 -4.203125 L 4.171875 0.015625 C 4.117188 0.00390625 4.0625 0 4 0 C 4 0 3.941406 0 3.828125 0 C 3.765625 0 3.710938 0 3.671875 0 L 3.140625 0 L 2.8125 -1 L 1.25 -1 Z M 2.546875 -1.828125 L 2.015625 -3.421875 L 1.515625 -1.828125 Z M 2.546875 -1.828125"/></g></g></g><g fill-opacity="1" fill="#ed1f2f"><g transform="translate(202.126542, 214.68764)"><g><path d="M 2.078125 -1.78125 C 2.003906 -1.78125 1.925781 -1.78125 1.84375 -1.78125 C 1.769531 -1.78125 1.65625 -1.785156 1.5 -1.796875 L 1.5 0 L 0.59375 0 L 0.59375 -4.609375 C 0.914062 -4.648438 1.3125 -4.671875 1.78125 -4.671875 C 2.414062 -4.671875 2.890625 -4.550781 3.203125 -4.3125 C 3.515625 -4.082031 3.671875 -3.722656 3.671875 -3.234375 C 3.671875 -2.847656 3.53125 -2.519531 3.25 -2.25 C 3.15625 -2.164062 3.046875 -2.085938 2.921875 -2.015625 L 3.625 -0.53125 C 3.757812 -0.226562 3.863281 -0.0507812 3.9375 0 L 3.921875 0.03125 C 3.703125 -0.0078125 3.351562 -0.0078125 2.875 0.03125 Z M 1.84375 -3.859375 C 1.726562 -3.859375 1.613281 -3.851562 1.5 -3.84375 L 1.5 -2.53125 C 1.613281 -2.507812 1.742188 -2.5 1.890625 -2.5 C 2.046875 -2.5 2.175781 -2.507812 2.28125 -2.53125 C 2.382812 -2.5625 2.476562 -2.601562 2.5625 -2.65625 C 2.71875 -2.78125 2.796875 -2.960938 2.796875 -3.203125 C 2.796875 -3.453125 2.710938 -3.625 2.546875 -3.71875 C 2.390625 -3.8125 2.15625 -3.859375 1.84375 -3.859375 Z M 1.84375 -3.859375"/></g></g></g><g fill-opacity="1" fill="#ed1f2f"><g transform="translate(208.642576, 214.68764)"><g><path d="M 2.90625 -0.828125 C 3.039062 -0.828125 3.140625 -0.84375 3.203125 -0.875 L 3.203125 -0.859375 L 3.171875 0 L 0.59375 0 L 0.59375 -4.609375 C 0.65625 -4.609375 0.722656 -4.601562 0.796875 -4.59375 L 1.046875 -4.59375 C 1.203125 -4.59375 1.375 -4.59375 1.5625 -4.59375 C 2.09375 -4.59375 2.613281 -4.597656 3.125 -4.609375 C 3.101562 -4.410156 3.09375 -4.140625 3.09375 -3.796875 C 3.09375 -3.765625 3.09375 -3.738281 3.09375 -3.71875 L 3.09375 -3.703125 C 2.96875 -3.742188 2.796875 -3.765625 2.578125 -3.765625 L 1.5 -3.765625 L 1.5 -2.890625 L 2.3125 -2.890625 C 2.5625 -2.890625 2.710938 -2.894531 2.765625 -2.90625 L 2.78125 -2.046875 C 2.664062 -2.054688 2.519531 -2.0625 2.34375 -2.0625 L 1.5 -2.0625 L 1.5 -0.828125 Z M 2.90625 -0.828125"/></g></g></g></svg>